<?xml version="1.0" encoding="UTF-8"?>
<svg version="1.1" xmlns="http://www.w3.org/2000/svg" width="232" height="228">
<path d="M0 0 C1.31291016 0.99193359 1.31291016 0.99193359 2.65234375 2.00390625 C7.35238271 5.64108765 11.5353133 9.14943862 15 14 C15 14.66 15 15.32 15 16 C15.60070312 16.2475 16.20140625 16.495 16.8203125 16.75 C20.7936257 19.02860255 22.63958106 23.18340221 25 27 C25.49757812 27.75539062 25.99515625 28.51078125 26.5078125 29.2890625 C40.6077817 51.36178916 45.21958849 80.45487054 39.94140625 106.078125 C31.45877931 139.82363444 8.19490776 165.23579649 -21.03125 182.82421875 C-47.85081704 197.17570055 -80.02247435 198.09469163 -108.9375 189.875 C-133.99194149 182.15689289 -152.65881281 164.49842159 -165.68359375 142.10546875 C-168.65850734 136.45699645 -171.01072222 130.61637965 -173.1875 124.625 C-173.42557373 123.97821289 -173.66364746 123.33142578 -173.90893555 122.66503906 C-178.26340456 110.15567067 -179.57758513 97.94054293 -179.5 84.8125 C-179.49835342 83.66237427 -179.49835342 83.66237427 -179.49667358 82.48901367 C-179.44693263 70.36801284 -178.39026723 59.40501928 -174 48 C-173.60425781 46.95972656 -173.20851562 45.91945313 -172.80078125 44.84765625 C-171.65824053 42.14123919 -170.39403695 39.5849428 -169 37 C-168.48695313 36.02933594 -167.97390625 35.05867188 -167.4453125 34.05859375 C-153.77484947 9.39506251 -130.99506809 -9.34947407 -104.01953125 -17.6015625 C-68.10103551 -27.77746011 -29.99371248 -23.19310762 0 0 Z M-143 23 C-145.74961238 26.16373964 -147.94055217 29.35316921 -150 33 C-150.33080566 33.58507324 -150.66161133 34.17014648 -151.00244141 34.77294922 C-155.94607976 43.66523766 -159.11191732 51.95540012 -161 62 C-161.27585938 62.98742187 -161.55171875 63.97484375 -161.8359375 64.9921875 C-167.39155248 85.02298281 -164.26205964 106.91268754 -154.09716797 124.94873047 C-149.49625188 132.78803559 -149.49625188 132.78803559 -144 140 C-143.34 140 -142.68 140 -142 140 C-141.75765625 140.56332031 -141.5153125 141.12664062 -141.265625 141.70703125 C-132.57472103 157.45258875 -110.47050488 167.37729399 -93.9921875 172.21142578 C-84.64774852 174.76349423 -75.7155892 176 -66 176 C-64.69546875 176 -63.3909375 176 -62.046875 176 C-45.31078367 175.47494615 -24.90062738 170.10887358 -12 159 C-12 158.34 -12 157.68 -12 157 C-11.42507812 156.73960937 -10.85015625 156.47921875 -10.2578125 156.2109375 C-7.83185323 154.90981748 -5.94941474 153.43123945 -3.875 151.625 C-2.85019531 150.74714844 -2.85019531 150.74714844 -1.8046875 149.8515625 C0.00654755 147.99328239 0.98652635 146.3717373 2 144 C2.66 144 3.32 144 4 144 C10.75538522 136.37209928 15.52440167 127.5004527 19.9375 118.375 C20.39761475 117.43454834 20.85772949 116.49409668 21.33178711 115.52514648 C30.85509499 95.23023617 30.74047451 74.04446272 24.3125 52.875 C20.1948837 41.47718759 14.16584857 30.96113121 6 22 C5.56703613 21.51934082 5.13407227 21.03868164 4.68798828 20.54345703 C-9.92623735 4.5049421 -29.94151124 -5.99264595 -51.86376953 -7.15136719 C-56.84587359 -7.25082991 -61.81581737 -7.17172166 -66.796875 -7.0546875 C-70.67158609 -6.97105078 -74.28859019 -7.2096356 -78.125 -7.8125 C-102.77273752 -10.37846681 -126.9308706 6.19126661 -143 23 Z " fill="#070707" transform="translate(184,28)"/>
<path d="M0 0 C1.52904972 1.52904972 1.16191036 2.93358352 1.20532227 5.06640625 C1.2352401 6.3654187 1.2352401 6.3654187 1.26576233 7.69067383 C1.28247482 8.63837646 1.29918732 9.5860791 1.31640625 10.5625 C1.33718735 11.54178467 1.35796844 12.52106934 1.37937927 13.5300293 C1.42276723 15.61828058 1.46379326 17.70658203 1.50268555 19.79492188 C1.56121442 22.93111398 1.62657731 26.06709899 1.69335938 29.203125 C1.90821259 39.66901758 2.0451621 50.12595569 1.96655273 60.59399414 C2.0689495 71.02127376 5.01192888 76.32753016 12 84 C12.72960937 84.81339844 13.45921875 85.62679687 14.2109375 86.46484375 C15.70121656 88.11983787 17.19737458 89.7695561 18.69921875 91.4140625 C21.88259779 94.99198597 24.87355894 98.7137026 27.859375 102.45703125 C30.10688163 105.1269707 32.52021473 107.54656821 35 110 C34.99555878 108.86296127 34.99111755 107.72592255 34.98654175 106.5544281 C34.9459635 95.82855126 34.91600012 85.10269004 34.89637566 74.37675381 C34.88594731 68.86270887 34.87180534 63.34872601 34.84912109 57.8347168 C34.82735902 52.51143345 34.81542423 47.18820974 34.81024551 41.86488533 C34.80655581 39.83595911 34.79935076 37.80703607 34.78853989 35.7781353 C34.77398036 32.9320157 34.77202394 30.0861412 34.77294922 27.23999023 C34.76575867 26.40488922 34.75856812 25.56978821 34.75115967 24.7093811 C34.76852312 19.75974712 35.41598206 15.69593182 37 11 C40.3 11 43.6 11 47 11 C49.04348355 17.13045065 48.41634069 24.12358797 48.5625 30.5625 C48.58334656 31.43383575 48.60419312 32.30517151 48.62567139 33.20291138 C49.08119985 52.94196578 49.11014671 72.68474021 49.12293625 92.42805099 C49.12499383 94.92999339 49.12875497 97.43192858 49.13284302 99.93386841 C49.13876319 103.93825118 49.1388025 107.94259518 49.13438225 111.94697952 C49.13335214 113.43520713 49.13388606 114.9234368 49.13614082 116.41166306 C49.14645592 124.65662142 48.94811676 132.80098628 48 141 C42.26238629 138.66991565 38.96287355 135.14318743 34.9375 130.625 C33.73904689 129.30399248 32.53984215 127.98366644 31.33984375 126.6640625 C30.77507324 126.03661133 30.21030273 125.40916016 29.62841797 124.76269531 C28.15385658 123.16654341 26.63382954 121.65241353 25.06640625 120.1484375 C23 118 23 118 23 116 C22.34 116 21.68 116 21 116 C19.56187327 114.43059199 18.1996995 112.79125965 16.875 111.125 C16.06804687 110.12210937 15.26109375 109.11921875 14.4296875 108.0859375 C12.91843085 106.16649577 11.42095706 104.23601559 9.9453125 102.2890625 C6.71296062 98.07012932 3.68743796 94.5744741 -0.625 91.4375 C-5.36190358 87.98062028 -8.0143944 83.97040256 -11 79 C-14.26458934 73.78934877 -18.05689395 69.55960173 -22.28515625 65.1484375 C-26 61.20329346 -26 61.20329346 -26 59 C-26.66 59 -27.32 59 -28 59 C-29.41438406 57.42713316 -30.75604401 55.78860004 -32.0625 54.125 C-36.47046289 48.52935814 -41.20554927 43.26717979 -46 38 C-45.94670532 39.25538574 -45.94670532 39.25538574 -45.89233398 40.53613281 C-45.01831341 62.45230807 -44.97051228 84.32901166 -45.34062576 106.25578308 C-45.37510151 108.31857352 -45.40765705 110.3813876 -45.43991089 112.44421387 C-45.50169946 116.33405683 -45.57388133 120.22366065 -45.6484375 124.11328125 C-45.66833237 125.30011002 -45.68822723 126.48693878 -45.70872498 127.70973206 C-45.73185257 128.789478 -45.75498016 129.86922394 -45.77880859 130.98168945 C-45.79736908 131.93074661 -45.81592957 132.87980377 -45.83505249 133.85762024 C-46 136 -46 136 -47 137 C-48.83115883 137.09851171 -50.66619933 137.12972629 -52.5 137.125 C-53.5003125 137.12757813 -54.500625 137.13015625 -55.53125 137.1328125 C-58 137 -58 137 -59 136 C-59.10567634 134.50832299 -59.14238716 133.01169954 -59.15148926 131.51631165 C-59.15983292 130.54756607 -59.16817657 129.5788205 -59.17677307 128.58071899 C-59.1830497 126.97322281 -59.1830497 126.97322281 -59.18945312 125.33325195 C-59.19774643 124.2113295 -59.20603973 123.08940704 -59.21458435 121.93348694 C-59.23203256 119.48731742 -59.24718614 117.04113073 -59.26036072 114.59493446 C-59.28132523 110.72439254 -59.30835566 106.85393613 -59.33703613 102.98344421 C-59.39686065 94.75982861 -59.44894357 86.53617402 -59.5 78.3125 C-59.55913118 68.80277233 -59.62158321 59.29309061 -59.69187927 49.78343773 C-59.71844877 45.96902663 -59.73927138 42.15461144 -59.7598877 38.34016418 C-59.77649552 35.99801437 -59.79336778 33.6558664 -59.81054688 31.3137207 C-59.81473129 30.25217773 -59.81891571 29.19063477 -59.82322693 28.09692383 C-59.8642766 23.2614613 -60.16608015 18.77310501 -61 14 C-59.9375 12.0625 -59.9375 12.0625 -58 11 C-53.89455383 11.11564637 -52.2844764 11.74629914 -49.18359375 14.51171875 C-48.25375539 15.55762203 -47.3385916 16.61673066 -46.4375 17.6875 C-45.98181641 18.20505859 -45.52613281 18.72261719 -45.05664062 19.25585938 C-42.74802152 21.8928738 -40.50994842 24.58697461 -38.2734375 27.28515625 C-36.15497724 29.91200681 -36.15497724 29.91200681 -34.1875 31.75 C-33 33 -33 33 -33 35 C-32.34 35 -31.68 35 -31 35 C-31 35.66 -31 36.32 -31 37 C-30.34 37 -29.68 37 -29 37 C-29 37.66 -29 38.32 -29 39 C-28.11441406 39.39832031 -28.11441406 39.39832031 -27.2109375 39.8046875 C-21.29145097 43.00497527 -17.14650402 48.8860378 -13.359375 54.30078125 C-11.92637047 56.26806678 -11.92637047 56.26806678 -9 58 C-9.48650276 57.17358505 -9.48650276 57.17358505 -9.98283386 56.33047485 C-11.16925433 53.61221383 -11.25993991 51.67250112 -11.2746582 48.71240234 C-11.28419022 47.65806 -11.29372223 46.60371765 -11.30354309 45.51742554 C-11.30263168 44.38503448 -11.30172028 43.25264343 -11.30078125 42.0859375 C-11.30506638 40.91995026 -11.3093515 39.75396301 -11.31376648 38.55264282 C-11.31950699 36.08978932 -11.32001211 33.62691887 -11.31567383 31.1640625 C-11.3125063 27.38252157 -11.33600376 23.60175712 -11.36132812 19.8203125 C-11.36360026 17.42968849 -11.36430501 15.03906237 -11.36328125 12.6484375 C-11.372491 11.51199799 -11.38170074 10.37555847 -11.39118958 9.2046814 C-11.38496078 8.15664337 -11.37873199 7.10860535 -11.37231445 6.02880859 C-11.37294388 5.10377533 -11.3735733 4.17874207 -11.3742218 3.22567749 C-11.25072861 2.49120392 -11.12723541 1.75673035 -11 1 C-6.80117625 -1.79921583 -4.87872887 -0.86558093 0 0 Z " fill="#2A2B2B" transform="translate(122,35)"/>
<path d="M0 0 C12.31820277 6.33173178 25.95357577 14.60196407 34.05566406 26.05664062 C34.05566406 26.71664062 34.05566406 27.37664063 34.05566406 28.05664062 C34.65636719 28.30414063 35.25707031 28.55164062 35.87597656 28.80664062 C39.84928976 31.08524318 41.69524512 35.24004283 44.05566406 39.05664062 C44.55324219 39.81203125 45.05082031 40.56742188 45.56347656 41.34570312 C59.96417626 63.88920684 59.9360773 88.20095865 58.05566406 114.05664062 C57.39566406 113.39664063 56.73566406 112.73664063 56.05566406 112.05664062 C55.06566406 112.55164063 55.06566406 112.55164063 54.05566406 113.05664062 C53.01116495 109.9231433 53.12142762 109.06695806 54.05566406 106.05664062 C52.40566406 105.39664063 50.75566406 104.73664063 49.05566406 104.05664062 C48.96067627 103.26193359 48.86568848 102.46722656 48.76782227 101.6484375 C45.70076793 76.50041215 41.71732045 53.49079299 24.05566406 34.05664062 C23.23324219 33.14140625 22.41082031 32.22617187 21.56347656 31.28320312 C11.9578278 21.12070516 1.03447267 14.9809533 -11.94433594 10.05664062 C-13.61194879 9.3923443 -15.27892063 8.72642722 -16.94433594 8.05664062 C-16.94433594 7.39664062 -16.94433594 6.73664062 -16.94433594 6.05664062 C-35.05691486 2.0369684 -52.49696402 0.74366739 -70.94433594 3.05664062 C-70.73808594 2.10789062 -70.53183594 1.15914062 -70.31933594 0.18164062 C-70.19558594 -0.84960938 -70.07183594 -1.88085938 -69.94433594 -2.94335938 C-70.60433594 -3.60335938 -71.26433594 -4.26335938 -71.94433594 -4.94335938 C-71.61433594 -5.60335938 -71.28433594 -6.26335938 -70.94433594 -6.94335938 C-69.22607422 -7.42993164 -69.22607422 -7.42993164 -67.01464844 -7.75976562 C-66.21929687 -7.88416016 -65.42394531 -8.00855469 -64.60449219 -8.13671875 C-63.76789063 -8.25853516 -62.93128906 -8.38035156 -62.06933594 -8.50585938 C-60.42578908 -8.75507527 -58.78254492 -9.00629775 -57.13964844 -9.25976562 C-56.40762207 -9.36748291 -55.6755957 -9.4752002 -54.92138672 -9.58618164 C-36.88061371 -12.84546182 -16.47493246 -7.97402459 0 0 Z " fill="#5F5F5F" transform="translate(164.9443359375,15.943359375)"/>
<path d="M0 0 C-2.93580566 1.95720377 -3.89822836 2.30195175 -7.23046875 2.6328125 C-8.03291016 2.71660156 -8.83535156 2.80039063 -9.66210938 2.88671875 C-10.49548828 2.96535156 -11.32886719 3.04398438 -12.1875 3.125 C-13.03248047 3.21136719 -13.87746094 3.29773438 -14.74804688 3.38671875 C-16.83128923 3.5985739 -18.91556042 3.80026777 -21 4 C-20.649375 4.928125 -20.29875 5.85625 -19.9375 6.8125 C-19 10 -19 10 -20 13 C-18.90171875 12.84144531 -17.8034375 12.68289062 -16.671875 12.51953125 C-1.39045477 10.63115557 18.8588393 9.92941965 33 17 C33 17.66 33 18.32 33 19 C32.32839844 18.855625 31.65679687 18.71125 30.96484375 18.5625 C22.37125903 16.96575652 14.08820964 16.85971113 5.36938477 16.97973633 C0.43411653 17.03896438 -4.23525228 16.94734569 -9.125 16.1875 C-25.69893671 14.46206084 -46.1030942 23.20977073 -59 33 C-67.02389859 39.69579037 -75.08097932 46.6538607 -80 56 C-80.31517578 56.56944336 -80.63035156 57.13888672 -80.95507812 57.72558594 C-85.88298712 66.66025703 -89.10514099 74.91935009 -91 85 C-91.27585937 85.98742187 -91.55171875 86.97484375 -91.8359375 87.9921875 C-97.42337652 108.1377245 -94.18007074 129.94888868 -84.03125 148.09375 C-81.64801333 152.14434617 -79.03241354 155.96626773 -76.03125 159.58203125 C-75 161 -75 161 -75 163 C-74.34 163 -73.68 163 -73 163 C-71.58984375 164.46875 -71.58984375 164.46875 -69.9375 166.5 C-55.23712502 183.69093437 -35.4232285 191.6748676 -14 197 C-14 197.33 -14 197.66 -14 198 C-31.74968742 197.59408199 -50.90757242 189.01453695 -64 177 C-64 176.34 -64 175.68 -64 175 C-64.5775 174.938125 -65.155 174.87625 -65.75 174.8125 C-68.92448483 173.66615826 -70.12848575 171.74043158 -72 169 C-72 168.34 -72 167.68 -72 167 C-72.66 167 -73.32 167 -74 167 C-74 166.34 -74 165.68 -74 165 C-74.66 165 -75.32 165 -76 165 C-86.14783238 152.38153523 -92.26143983 139.33391792 -95.45703125 123.4140625 C-95.76011437 121.06165003 -95.76011437 121.06165003 -97 120 C-97.14463277 118.56019567 -97.22698228 117.11400131 -97.28125 115.66796875 C-97.33732422 114.34635742 -97.33732422 114.34635742 -97.39453125 112.99804688 C-97.42933594 112.07056641 -97.46414062 111.14308594 -97.5 110.1875 C-97.56913057 108.36834176 -97.64191588 106.54931791 -97.71875 104.73046875 C-97.74904297 103.91989014 -97.77933594 103.10931152 -97.81054688 102.27416992 C-97.92934931 100.00355261 -97.92934931 100.00355261 -98.58007812 97.8918457 C-99 96 -99 96 -98 93 C-96.99487387 88.90872158 -96.99487387 88.90872158 -97.75 84.875 C-99.65607427 82.01588859 -101.56617036 79.43382964 -104 77 C-103.67 76.01 -103.34 75.02 -103 74 C-103 72.68 -103 71.36 -103 70 C-102.125 67.859375 -102.125 67.859375 -101 65.75 C-100.62875 65.04359375 -100.2575 64.3371875 -99.875 63.609375 C-99.58625 63.07828125 -99.2975 62.5471875 -99 62 C-97.68 62 -96.36 62 -95 62 C-95.66 61.67 -96.32 61.34 -97 61 C-95.07768154 45.23698859 -81.70068016 32.97060604 -69.85546875 23.40234375 C-50.60087144 8.55693529 -24.46495994 -0.95941019 0 0 Z " fill="#171717" transform="translate(115,5)"/>
<path d="M0 0 C2.08828839 1.86237092 3.78217641 3.57193716 5.5625 5.6875 C6.01818359 6.20505859 6.47386719 6.72261719 6.94335938 7.25585938 C9.25197848 9.8928738 11.49005158 12.58697461 13.7265625 15.28515625 C15.84502276 17.91200681 15.84502276 17.91200681 17.8125 19.75 C19 21 19 21 19 23 C19.66 23 20.32 23 21 23 C21 23.66 21 24.32 21 25 C21.66 25 22.32 25 23 25 C23 25.66 23 26.32 23 27 C23.66 27.33 24.32 27.66 25 28 C26.50572927 30.56859699 27.50982525 33.05895149 28 36 C27.505 36.99 27.505 36.99 27 38 C26.01 37.34 25.02 36.68 24 36 C23.02391783 38.92824652 22.91773332 40.95613276 23 44 C19.41204354 41.30435271 16.66509826 38.55726533 13.9375 35 C11.45245868 31.77190672 8.90210572 28.85643596 6 26 C6.05329468 27.25538574 6.05329468 27.25538574 6.10766602 28.53613281 C6.98168659 50.45230807 7.02948772 72.32901166 6.65937424 94.25578308 C6.62489849 96.31857352 6.59234295 98.3813876 6.56008911 100.44421387 C6.49830054 104.33405683 6.42611867 108.22366065 6.3515625 112.11328125 C6.33166763 113.30011002 6.31177277 114.48693878 6.29127502 115.70973206 C6.26814743 116.789478 6.24501984 117.86922394 6.22119141 118.98168945 C6.20263092 119.93074661 6.18407043 120.87980377 6.16494751 121.85762024 C6 124 6 124 5 125 C3.16884117 125.09851171 1.33380067 125.12972629 -0.5 125.125 C-1.5003125 125.12757813 -2.500625 125.13015625 -3.53125 125.1328125 C-6 125 -6 125 -7 124 C-7.10567634 122.50832299 -7.14238716 121.01169954 -7.15148926 119.51631165 C-7.16400475 118.06319328 -7.16400475 118.06319328 -7.17677307 116.58071899 C-7.1830497 114.97322281 -7.1830497 114.97322281 -7.18945312 113.33325195 C-7.19774643 112.2113295 -7.20603973 111.08940704 -7.21458435 109.93348694 C-7.23203256 107.48731742 -7.24718614 105.04113073 -7.26036072 102.59493446 C-7.28132523 98.72439254 -7.30835566 94.85393613 -7.33703613 90.98344421 C-7.39686065 82.75982861 -7.44894357 74.53617402 -7.5 66.3125 C-7.55913118 56.80277233 -7.62158321 47.29309061 -7.69187927 37.78343773 C-7.71844877 33.96902663 -7.73927138 30.15461144 -7.7598877 26.34016418 C-7.77649552 23.99801437 -7.79336778 21.6558664 -7.81054688 19.3137207 C-7.81473129 18.25217773 -7.81891571 17.19063477 -7.82322693 16.09692383 C-7.8642766 11.2614613 -8.16608015 6.77310501 -9 2 C-6.7876668 -2.03425465 -3.99340049 -1.14097157 0 0 Z " fill="#2C2D2D" transform="translate(70,47)"/>
<path d="M0 0 C1.52904972 1.52904972 1.16191036 2.93358352 1.20532227 5.06640625 C1.22526749 5.93241455 1.24521271 6.79842285 1.26576233 7.69067383 C1.28247482 8.63837646 1.29918732 9.5860791 1.31640625 10.5625 C1.33718735 11.54178467 1.35796844 12.52106934 1.37937927 13.5300293 C1.42276723 15.61828058 1.46379326 17.70658203 1.50268555 19.79492188 C1.56121442 22.93111398 1.62657731 26.06709899 1.69335938 29.203125 C1.90821259 39.66901758 2.0451621 50.12595569 1.96655273 60.59399414 C2.0689495 71.02127376 5.01192888 76.32753016 12 84 C12.72960937 84.81339844 13.45921875 85.62679687 14.2109375 86.46484375 C15.69823122 88.11652257 17.18913775 89.76495512 18.68359375 91.41015625 C21.17235117 94.19269616 23.60223591 97.01364285 26 99.875 C26.7425 100.75929688 27.485 101.64359375 28.25 102.5546875 C29.87444595 104.82456063 30.59451189 106.27562676 31 109 C30.01 108.505 30.01 108.505 29 108 C29 107.34 29 106.68 29 106 C28.34 106 27.68 106 27 106 C25.41466298 104.28667246 23.90458785 102.50310953 22.4375 100.6875 C21.22900391 99.20830078 21.22900391 99.20830078 19.99609375 97.69921875 C18 95 18 95 17 92 C16.34 92 15.68 92 15 92 C13.58561594 90.42713316 12.24395599 88.78860004 10.9375 87.125 C10.13699219 86.13242188 9.33648437 85.13984375 8.51171875 84.1171875 C8.09712402 83.6025293 7.6825293 83.08787109 7.25537109 82.55761719 C5.27566099 80.10126742 3.28719828 77.65914905 1.25 75.25 C0.55390625 74.40953125 -0.1421875 73.5690625 -0.859375 72.703125 C-2.9077072 70.67349134 -2.9077072 70.67349134 -5.765625 71.234375 C-6.50296875 71.48703125 -7.2403125 71.7396875 -8 72 C-8 71.01 -8 70.02 -8 69 C-9.98 69.99 -11.96 70.98 -14 72 C-14.33 71.01 -14.66 70.02 -15 69 C-15.99 68.67 -16.98 68.34 -18 68 C-18 67.34 -18 66.68 -18 66 C-18.5775 65.9175 -19.155 65.835 -19.75 65.75 C-22.6539336 64.78202213 -24.03740604 63.31305716 -26 61 C-26 60.34 -26 59.68 -26 59 C-26.66 59 -27.32 59 -28 59 C-29.80230168 55.17010894 -30.19622241 52.21878192 -30 48 C-26.125 47 -26.125 47 -25 47 C-25.309375 46.401875 -25.61875 45.80375 -25.9375 45.1875 C-27 43 -27 43 -28 40 C-24.49247716 41.46862872 -22.52685097 43.38061709 -20.0625 46.25 C-19.02416016 47.44882813 -19.02416016 47.44882813 -17.96484375 48.671875 C-16.33559136 50.60236093 -14.72431196 52.54475807 -13.125 54.5 C-11.24775337 57.03939918 -11.24775337 57.03939918 -9 58 C-9.32433517 57.4490567 -9.64867035 56.8981134 -9.98283386 56.33047485 C-11.16925433 53.61221383 -11.25993991 51.67250112 -11.2746582 48.71240234 C-11.28419022 47.65806 -11.29372223 46.60371765 -11.30354309 45.51742554 C-11.30263168 44.38503448 -11.30172028 43.25264343 -11.30078125 42.0859375 C-11.30506638 40.91995026 -11.3093515 39.75396301 -11.31376648 38.55264282 C-11.31950699 36.08978932 -11.32001211 33.62691887 -11.31567383 31.1640625 C-11.3125063 27.38252157 -11.33600376 23.60175712 -11.36132812 19.8203125 C-11.36360026 17.42968849 -11.36430501 15.03906237 -11.36328125 12.6484375 C-11.372491 11.51199799 -11.38170074 10.37555847 -11.39118958 9.2046814 C-11.38496078 8.15664337 -11.37873199 7.10860535 -11.37231445 6.02880859 C-11.37294388 5.10377533 -11.3735733 4.17874207 -11.3742218 3.22567749 C-11.25072861 2.49120392 -11.12723541 1.75673035 -11 1 C-6.80117625 -1.79921583 -4.87872887 -0.86558093 0 0 Z " fill="#3C3C3C" transform="translate(122,35)"/>
<path d="M0 0 C6.80816853 10.2122528 4.27732345 31.21588287 2.53564453 43.19335938 C0.04458062 55.28637956 -5.05305988 66.2557669 -11 77 C-11.33 77.66 -11.66 78.32 -12 79 C-13.485 79.495 -13.485 79.495 -15 80 C-15.33 80.66 -15.66 81.32 -16 82 C-16.66 82 -17.32 82 -18 82 C-18.33 82.99 -18.66 83.98 -19 85 C-19.66 85 -20.32 85 -21 85 C-21.165 85.845625 -21.33 86.69125 -21.5 87.5625 C-23.30474738 91.69837941 -25.53335163 93.51697548 -28.97265625 96.328125 C-31.19959776 98.10395564 -31.19959776 98.10395564 -33.75 100.8125 C-35.81541055 102.82053803 -37.43128485 103.80738225 -40 105 C-40.495 105.99 -40.495 105.99 -41 107 C-41.99 107 -42.98 107 -44 107 C-44.54372951 103.94152152 -45 101.11227195 -45 98 C-44.01 97.505 -44.01 97.505 -43 97 C-42.30959426 95.34302621 -41.6469365 93.6744239 -41 92 C-39.4297377 89.25204097 -37.7560711 86.63410665 -36 84 C-35.34 84 -34.68 84 -34 84 C-33.63068359 83.19755859 -33.63068359 83.19755859 -33.25390625 82.37890625 C-31.68876654 79.40952905 -29.8172032 76.7189303 -27.9375 73.9375 C-18.49473339 59.52730344 -11.65966099 44.26047428 -10 27 C-9.34 27 -8.68 27 -8 27 C-7.505 29.475 -7.505 29.475 -7 32 C-5.68 32 -4.36 32 -3 32 C-2.31292445 34.49064888 -2 36.37886292 -2 39 C-1.01 39.495 -1.01 39.495 0 40 C1.14316857 26.5677693 1.37765235 13.43211039 0 0 Z " fill="#1D1D1D" transform="translate(222,88)"/>
<path d="M0 0 C2 0 2 0 4.625 2.5 C5.40875 3.325 6.1925 4.15 7 5 C7.66 4.34 8.32 3.68 9 3 C9.99 3 10.98 3 12 3 C12 3.99 12 4.98 12 6 C13.65 5.34 15.3 4.68 17 4 C19.06446213 6.20652615 21.12660234 8.41514857 23.1875 10.625 C23.76564453 11.24246094 24.34378906 11.85992187 24.93945312 12.49609375 C35 23.29555085 35 23.29555085 35 26 C35.66 26 36.32 26 37 26 C38.62109375 27.86328125 38.62109375 27.86328125 40.4375 30.3125 C42.90976977 33.63908504 42.90976977 33.63908504 45.72265625 36.66796875 C47 38 47 38 47 40 C47.66 40 48.32 40 49 40 C49.99 41.98 50.98 43.96 52 46 C51.01 46 50.02 46 49 46 C49.66 47.32 50.32 48.64 51 50 C52.32 49.34 53.64 48.68 55 48 C54.67 49.32 54.34 50.64 54 52 C56.81509993 54.2773501 56.81509993 54.2773501 60 54 C60 54.66 60 55.32 60 56 C60.66 56 61.32 56 62 56 C62 56.66 62 57.32 62 58 C62.99 58 63.98 58 65 58 C66.34910266 55.30179468 65.97774099 52.92365725 65.83984375 49.97265625 C66 48 66 48 68 45 C69.38297872 65.53191489 69.38297872 65.53191489 68 75 C62.26238629 72.66991565 58.96287355 69.14318743 54.9375 64.625 C53.73904689 63.30399248 52.53984215 61.98366644 51.33984375 60.6640625 C50.77507324 60.03661133 50.21030273 59.40916016 49.62841797 58.76269531 C48.15385658 57.16654341 46.63382954 55.65241353 45.06640625 54.1484375 C43 52 43 52 43 50 C42.34 50 41.68 50 41 50 C39.56187327 48.43059199 38.1996995 46.79125965 36.875 45.125 C36.06804687 44.12210938 35.26109375 43.11921875 34.4296875 42.0859375 C32.91843085 40.16649577 31.42095706 38.23601559 29.9453125 36.2890625 C26.71296062 32.07012932 23.68743796 28.5744741 19.375 25.4375 C14.64736323 21.98738297 11.95826639 17.98522669 9 13 C6.88932632 9.73804977 4.7563923 6.65023823 2.25 3.6875 C0 1 0 1 0 0 Z " fill="#262726" transform="translate(102,101)"/>
<path d="M0 0 C0.33 0 0.66 0 1 0 C1 3.3 1 6.6 1 10 C1.99 9.67 2.98 9.34 4 9 C4.99 9.66 5.98 10.32 7 11 C7.99 10.67 8.98 10.34 10 10 C10 8.35 10 6.7 10 5 C10.33 5 10.66 5 11 5 C11.33 11.6 11.66 18.2 12 25 C12.33 25 12.66 25 13 25 C13.02312821 32.67536627 13.04091753 40.35072896 13.05181217 48.02612209 C13.05703995 51.58977422 13.06413569 55.15340257 13.07543945 58.71704102 C13.08834176 62.81006097 13.09322906 66.9030558 13.09765625 70.99609375 C13.10281754 72.28148544 13.10797882 73.56687714 13.11329651 74.89122009 C13.11337204 76.07236893 13.11344757 77.25351776 13.11352539 78.47045898 C13.115746 79.51636703 13.11796661 80.56227509 13.12025452 81.63987732 C13 84 13 84 12 85 C10.16884117 85.09851171 8.33380067 85.12972629 6.5 85.125 C5.4996875 85.12757813 4.499375 85.13015625 3.46875 85.1328125 C1 85 1 85 0 84 C-0.09509559 81.38311559 -0.12556 78.792711 -0.11352539 76.17553711 C-0.11367142 75.35609116 -0.11381744 74.5366452 -0.1139679 73.69236755 C-0.11326852 70.97066647 -0.10547501 68.24903295 -0.09765625 65.52734375 C-0.09579216 63.64547259 -0.09436821 61.76360094 -0.09336853 59.88172913 C-0.08954267 54.91851471 -0.07971181 49.95532936 -0.06866455 44.99212646 C-0.0584519 39.93160394 -0.05387122 34.87107673 -0.04882812 29.81054688 C-0.0380896 19.87368512 -0.02101236 9.93684497 0 0 Z " fill="#181818" transform="translate(63,87)"/>
<path d="M0 0 C-2.93580566 1.95720377 -3.89822836 2.30195175 -7.23046875 2.6328125 C-8.03291016 2.71660156 -8.83535156 2.80039063 -9.66210938 2.88671875 C-10.91217773 3.00466797 -10.91217773 3.00466797 -12.1875 3.125 C-13.03248047 3.21136719 -13.87746094 3.29773438 -14.74804688 3.38671875 C-16.83128923 3.5985739 -18.91556042 3.80026777 -21 4 C-20.649375 4.928125 -20.29875 5.85625 -19.9375 6.8125 C-19 10 -19 10 -20 13 C-18.90171875 12.84144531 -17.8034375 12.68289062 -16.671875 12.51953125 C-1.39045477 10.63115557 18.8588393 9.92941965 33 17 C33 17.66 33 18.32 33 19 C32.32839844 18.855625 31.65679687 18.71125 30.96484375 18.5625 C22.37125903 16.96575652 14.08820964 16.85971113 5.36938477 16.97973633 C0.43411653 17.03896438 -4.23525228 16.94734569 -9.125 16.1875 C-24.82247137 14.55330577 -42.7754371 22.58592238 -55.7421875 30.6328125 C-58.78998156 32.47836254 -61.60724778 33.89216254 -65 35 C-65.99 34.34 -66.98 33.68 -68 33 C-69.32 33 -70.64 33 -72 33 C-72.22223194 30.25913944 -72.34781139 28.56036279 -70.875 26.1875 C-68.22464043 24.50893894 -66.06753576 24.79549762 -63 25 C-62.7525 24.38125 -62.505 23.7625 -62.25 23.125 C-61 21 -61 21 -59.125 20.125 C-56.72857047 19.11316381 -56.72857047 19.11316381 -55.5625 16.25 C-49.72948077 7.09972938 -33.12114623 4.76811382 -23.23583984 2.48876953 C-15.48600562 0.79460398 -7.93468889 -0.31116427 0 0 Z " fill="#292929" transform="translate(115,5)"/>
<path d="M0 0 C6.6964681 2.1009633 6.6964681 2.1009633 8.75 5.125 C9.13671875 5.66382812 9.5234375 6.20265625 9.921875 6.7578125 C13.1352493 13.44069963 13.27667583 20.14562446 13.1953125 27.40625 C13.1924826 28.3715564 13.18965271 29.33686279 13.18673706 30.3314209 C13.17562124 33.38774478 13.15053285 36.44376601 13.125 39.5 C13.11495908 41.58332907 13.10583518 43.66666278 13.09765625 45.75 C13.07571011 50.83344837 13.04124017 55.91667303 13 61 C10.29863366 62.35068317 8.86436954 61.73985317 5.9375 61.125 C5.03902344 60.94195312 4.14054687 60.75890625 3.21484375 60.5703125 C1 60 1 60 0 59 C-0.09381302 57.15881971 -0.11743954 55.31402359 -0.11352539 53.47045898 C-0.11344986 52.28931015 -0.11337433 51.10816132 -0.11329651 49.89122009 C-0.10813522 48.6058284 -0.10297394 47.32043671 -0.09765625 45.99609375 C-0.0962413 44.68794205 -0.09482635 43.37979034 -0.09336853 42.03199768 C-0.0895441 38.54837141 -0.07971446 35.06478661 -0.06866455 31.58117676 C-0.05844882 28.02873292 -0.05387056 24.47628241 -0.04882812 20.92382812 C-0.03809212 13.94920168 -0.0210166 6.97460283 0 0 Z " fill="#1E1E1E" transform="translate(111,122)"/>
<path d="M0 0 C0 0.33 0 0.66 0 1 C-0.969375 1.268125 -1.93875 1.53625 -2.9375 1.8125 C-3.948125 2.204375 -4.95875 2.59625 -6 3 C-6.33 3.99 -6.66 4.98 -7 6 C-6.401875 6.103125 -5.80375 6.20625 -5.1875 6.3125 C-2.67667019 7.10161794 -1.71824704 8.04744654 0 10 C3.02933021 13.02933021 6.17315631 14.51149356 10.08203125 16.13671875 C13.18942951 17.5353644 16.06899542 19.26532382 19 21 C18.34 21.33 17.68 21.66 17 22 C14.6796875 21.109375 14.6796875 21.109375 11.875 19.75 C7.3074916 17.58961065 2.75443802 15.70442118 -2 14 C-2 13.34 -2 12.68 -2 12 C-20.11257892 7.98032777 -37.55262808 6.68702676 -56 9 C-55.79375 8.05125 -55.5875 7.1025 -55.375 6.125 C-55.25125 5.09375 -55.1275 4.0625 -55 3 C-55.66 2.34 -56.32 1.68 -57 1 C-56.67 0.34 -56.34 -0.32 -56 -1 C-54.28173828 -1.48657227 -54.28173828 -1.48657227 -52.0703125 -1.81640625 C-51.27496094 -1.94080078 -50.47960937 -2.06519531 -49.66015625 -2.19335938 C-48.82355469 -2.31517578 -47.98695312 -2.43699219 -47.125 -2.5625 C-45.48145314 -2.81171589 -43.83820899 -3.06293838 -42.1953125 -3.31640625 C-41.46328613 -3.42412354 -40.73125977 -3.53184082 -39.97705078 -3.64282227 C-26.38896767 -6.09767107 -13.44304607 -2.93426894 0 0 Z " fill="#4A4A49" transform="translate(150,10)"/>
<path d="M0 0 C1.22589844 0.01353516 1.22589844 0.01353516 2.4765625 0.02734375 C3.41628906 0.04474609 3.41628906 0.04474609 4.375 0.0625 C4.333401 7.53767912 4.26114364 15.01210947 4.16748047 22.48681641 C4.13924044 25.03004191 4.1180411 27.57335567 4.10400391 30.11669922 C4.08261723 33.77096853 4.03598609 37.42417314 3.984375 41.078125 C3.98253204 42.78612274 3.98253204 42.78612274 3.98065186 44.52862549 C3.95107391 46.11982208 3.95107391 46.11982208 3.92089844 47.74316406 C3.91201599 48.67582092 3.90313354 49.60847778 3.89398193 50.56939697 C3.22156997 53.79955237 1.92149219 55.03159499 -0.625 57.0625 C-1.285 57.0625 -1.945 57.0625 -2.625 57.0625 C-3.615 59.5375 -3.615 59.5375 -4.625 62.0625 C-4.955 62.0625 -5.285 62.0625 -5.625 62.0625 C-6.5298855 54.66194611 -6.75879996 47.38036906 -6.72265625 39.9296875 C-6.7212413 38.81183868 -6.71982635 37.69398987 -6.71836853 36.54226685 C-6.71281622 33.00731617 -6.70027279 29.47243121 -6.6875 25.9375 C-6.68247883 23.52604259 -6.67791701 21.11458417 -6.67382812 18.703125 C-6.66286246 12.82289463 -6.64617253 6.94270201 -6.625 1.0625 C-4.21954362 -0.14022819 -2.67503047 -0.03821472 0 0 Z " fill="#4D4D4D" transform="translate(165.625,46.9375)"/>
<path d="M0 0 C3.40853497 1.70426749 3.92074573 5.63700161 5.125 9.0625 C5.40214844 9.80177734 5.67929688 10.54105469 5.96484375 11.30273438 C7.79787004 16.46320002 8.16767287 20.53945349 8 26 C8.31778182 28.00252986 8.65009206 30.00283312 9 32 C9.4310774 42.01621024 8.72619921 52.01476087 8 62 C7.34 61.34 6.68 60.68 6 60 C5.01 60.495 5.01 60.495 4 61 C2.95550089 57.86650268 3.06576355 57.01031744 4 54 C2.35 53.34 0.7 52.68 -1 52 C-1.09498779 51.20529297 -1.18997559 50.41058594 -1.2878418 49.59179688 C-3.67586038 29.30293731 -3.67586038 29.30293731 -9.14453125 9.67578125 C-10 7 -10 7 -9 5 C-8.74605469 5.56589844 -8.49210938 6.13179688 -8.23046875 6.71484375 C-7.88628906 7.44832031 -7.54210937 8.18179688 -7.1875 8.9375 C-6.68283203 10.03384766 -6.68283203 10.03384766 -6.16796875 11.15234375 C-5.06399866 13.33029489 -5.06399866 13.33029489 -2 14 C-1.67 13.34 -1.34 12.68 -1 12 C-0.01 12 0.98 12 2 12 C1.34 8.04 0.68 4.08 0 0 Z " fill="#535353" transform="translate(215,68)"/>
<path d="M0 0 C0.33 0 0.66 0 1 0 C1.02578125 0.65226562 1.0515625 1.30453125 1.078125 1.9765625 C1.51564671 8.71837437 2.84694767 12.84694767 7.75 17.75 C9 19 9 19 9 21 C9.99 21.33 10.98 21.66 12 22 C13.30481231 25.91443694 13.25438177 29.70367534 13.3515625 33.7890625 C13.37471527 34.64809174 13.39786804 35.50712097 13.42172241 36.3921814 C13.46930901 38.20605713 13.51454942 40.01999572 13.55761719 41.83398438 C13.62491149 44.62133388 13.7026031 47.40826284 13.78125 50.1953125 C13.82614726 51.9557133 13.870439 53.71612967 13.9140625 55.4765625 C13.93796051 56.31506744 13.96185852 57.15357239 13.98648071 58.01748657 C14.03009768 60.01118575 14.02056293 62.00592979 14 64 C13.505 64.495 13.505 64.495 13 65 C12.84235595 66.77869726 12.74899323 68.56318476 12.68359375 70.34765625 C12.64169922 71.42724609 12.59980469 72.50683594 12.55664062 73.61914062 C12.51732422 74.75544922 12.47800781 75.89175781 12.4375 77.0625 C12.39431641 78.20267578 12.35113281 79.34285156 12.30664062 80.51757812 C12.20017161 83.34492195 12.09815793 86.17235738 12 89 C11.67 89 11.34 89 11 89 C10.67 76.13 10.34 63.26 10 50 C8.68 50.66 7.36 51.32 6 52 C3.25 51.125 3.25 51.125 1 50 C-0.17593325 40.55257508 -0.32390838 31.08001953 -0.55224609 21.57519531 C-0.6043009 19.46148363 -0.6613668 17.34794771 -0.71875 15.234375 C-0.74904297 13.98881836 -0.77933594 12.74326172 -0.81054688 11.45996094 C-0.92136382 8.00311827 -0.92136382 8.00311827 -1.64257812 4.67285156 C-1.76052734 3.79081055 -1.87847656 2.90876953 -2 2 C-1.34 1.34 -0.68 0.68 0 0 Z " fill="#2A2B2B" transform="translate(63,47)"/>
<path d="M0 0 C6.78393993 10.17590989 4.36866228 31.40131289 2.47119141 43.32226562 C0.38133405 52.78979132 -2.40031228 64.61934503 -9.625 71.5 C-12 73 -12 73 -14 73 C-15.02977875 68.23727328 -15.39511469 65.34114537 -13 61 C-13.66 60.34 -14.32 59.68 -15 59 C-14.67 58.01 -14.34 57.02 -14 56 C-13.65746994 53.54184311 -13.34659509 51.08985761 -13.0625 48.625 C-12.19705089 41.39030874 -11.15798122 34.19426633 -10 27 C-9.34 27 -8.68 27 -8 27 C-7.67 28.65 -7.34 30.3 -7 32 C-5.68 32 -4.36 32 -3 32 C-2.31292445 34.49064888 -2 36.37886292 -2 39 C-1.34 39.33 -0.68 39.66 0 40 C1.14316857 26.5677693 1.37765235 13.43211039 0 0 Z " fill="#2B2C2B" transform="translate(222,88)"/>
<path d="M0 0 C0.66 0.66 1.32 1.32 2 2 C1.525625 2.37125 1.05125 2.7425 0.5625 3.125 C-1.52205802 5.62646962 -1.64621491 7.81593418 -2 11 C-2.66 11 -3.32 11 -4 11 C-3.65772428 13.97065509 -3.65772428 13.97065509 -3 17 C-2.34 17.33 -1.68 17.66 -1 18 C-9.3839084 24.05504495 -24.53111404 33.66339607 -35.34375 32.81640625 C-35.8903125 32.54699219 -36.436875 32.27757812 -37 32 C-37.33 31.01 -37.66 30.02 -38 29 C-39.32 29.33 -40.64 29.66 -42 30 C-41.505 28.515 -41.505 28.515 -41 27 C-40.67 27 -40.34 27 -40 27 C-39.99871094 26.23558594 -39.99742187 25.47117188 -39.99609375 24.68359375 C-39 22 -39 22 -35.53515625 20.41015625 C-34.04961899 19.94355594 -32.55823619 19.49529331 -31.0625 19.0625 C-24.80495317 17.07634076 -19.39198008 14.85600071 -13.8828125 11.19921875 C-12 10 -12 10 -9 9 C-9 8.34 -9 7.68 -9 7 C-7.03125 5.2734375 -7.03125 5.2734375 -4.5 3.375 C-3.6646875 2.74335938 -2.829375 2.11171875 -1.96875 1.4609375 C-1.3190625 0.97882813 -0.669375 0.49671875 0 0 Z " fill="#111111" transform="translate(181,178)"/>
<path d="M0 0 C7.2817019 3.07449636 11.95094122 10.82943087 16.50390625 17.0234375 C19.92677069 21.54555083 23.47302907 25.7979165 27.9375 29.3125 C31.6776154 32.26314513 34.08075325 36.17403224 36.80078125 40.0390625 C39.76007205 44.02332968 43.09048609 47.58611658 46.4609375 51.22265625 C49.06680088 54.07306988 51.58432227 56.97548757 54.0625 59.9375 C54.79597656 60.81277344 55.52945313 61.68804687 56.28515625 62.58984375 C57.88633226 64.84024375 58.59326596 66.30304043 59 69 C58.01 68.505 58.01 68.505 57 68 C57 67.34 57 66.68 57 66 C56.34 66 55.68 66 55 66 C53.41466298 64.28667246 51.90458785 62.50310953 50.4375 60.6875 C49.63183594 59.70136719 48.82617188 58.71523437 47.99609375 57.69921875 C46 55 46 55 45 52 C44.34 52 43.68 52 43 52 C41.58561594 50.42713316 40.24395599 48.78860004 38.9375 47.125 C38.13699219 46.13242188 37.33648437 45.13984375 36.51171875 44.1171875 C36.09712402 43.6025293 35.6825293 43.08787109 35.25537109 42.55761719 C33.27566099 40.10126742 31.28719828 37.65914905 29.25 35.25 C28.55390625 34.40953125 27.8578125 33.5690625 27.140625 32.703125 C25.0922928 30.67349134 25.0922928 30.67349134 22.234375 31.234375 C21.49703125 31.48703125 20.7596875 31.7396875 20 32 C20 31.01 20 30.02 20 29 C18.02 29.99 16.04 30.98 14 32 C13.67 31.01 13.34 30.02 13 29 C12.01 28.67 11.02 28.34 10 28 C10 27.34 10 26.68 10 26 C9.4225 25.9175 8.845 25.835 8.25 25.75 C5.3460664 24.78202213 3.96259396 23.31305716 2 21 C2 20.34 2 19.68 2 19 C1.34 19 0.68 19 0 19 C-1.80230168 15.17010894 -2.19622241 12.21878192 -2 8 C1.875 7 1.875 7 3 7 C2.690625 6.401875 2.38125 5.80375 2.0625 5.1875 C1 3 1 3 0 0 Z " fill="#2F3130" transform="translate(94,75)"/>
<path d="M0 0 C0.66 0 1.32 0 2 0 C1.58700146 2.47799122 1.19603522 4.61891472 0.04150391 6.86328125 C-9.1815909 25.78511102 -8.17761284 51.14819563 -1.84326172 70.68408203 C1.32390441 79.38232694 6.05926233 87.46235594 11.96875 94.58203125 C13 96 13 96 13 98 C13.66 98 14.32 98 15 98 C16.41015625 99.46875 16.41015625 99.46875 18.0625 101.5 C32.76287498 118.69093437 52.5767715 126.6748676 74 132 C74 132.33 74 132.66 74 133 C56.25031258 132.59408199 37.09242758 124.01453695 24 112 C24 111.34 24 110.68 24 110 C23.13375 109.9071875 23.13375 109.9071875 22.25 109.8125 C19.07551517 108.66615826 17.87151425 106.74043158 16 104 C16 103.34 16 102.68 16 102 C15.34 102 14.68 102 14 102 C14 101.34 14 100.68 14 100 C13.34 100 12.68 100 12 100 C1.85216762 87.38153523 -4.26143983 74.33391792 -7.45703125 58.4140625 C-7.76011437 56.06165003 -7.76011437 56.06165003 -9 55 C-9.14463277 53.56019567 -9.22698228 52.11400131 -9.28125 50.66796875 C-9.33732422 49.34635742 -9.33732422 49.34635742 -9.39453125 47.99804688 C-9.42933594 47.07056641 -9.46414062 46.14308594 -9.5 45.1875 C-9.56913057 43.36834176 -9.64191588 41.54931791 -9.71875 39.73046875 C-9.74904297 38.91989014 -9.77933594 38.10931152 -9.81054688 37.27416992 C-9.92934931 35.00355261 -9.92934931 35.00355261 -10.58007812 32.8918457 C-11 31 -11 31 -10 28 C-8.99487387 23.90872158 -8.99487387 23.90872158 -9.75 19.875 C-11.65607427 17.01588859 -13.56617036 14.43382964 -16 12 C-15.67 11.01 -15.34 10.02 -15 9 C-14.01 8.67 -13.02 8.34 -12 8 C-11.67 7.34 -11.34 6.68 -11 6 C-10.34 6.33 -9.68 6.66 -9 7 C-9 7.66 -9 8.32 -9 9 C-5.2236068 9.2981424 -5.2236068 9.2981424 -3 8 C-2.09656316 6.11736119 -2.09656316 6.11736119 -1.375 3.9375 C-1.11460938 3.20402344 -0.85421875 2.47054687 -0.5859375 1.71484375 C-0.39257812 1.14894531 -0.19921875 0.58304687 0 0 Z " fill="#0E0E0E" transform="translate(27,70)"/>
<path d="M0 0 C2 0 2 0 4.625 2.5 C5.40875 3.325 6.1925 4.15 7 5 C7.66 4.34 8.32 3.68 9 3 C9.99 3 10.98 3 12 3 C12 3.99 12 4.98 12 6 C13.65 5.34 15.3 4.68 17 4 C19.06446213 6.20652615 21.12660234 8.41514857 23.1875 10.625 C23.76564453 11.24246094 24.34378906 11.85992187 24.93945312 12.49609375 C35 23.29555085 35 23.29555085 35 26 C35.66 26 36.32 26 37 26 C38.625 28.5 38.625 28.5 40 31 C39.01 31.33 38.02 31.66 37 32 C36.34 31.34 35.68 30.68 35 30 C34.01 31.32 33.02 32.64 32 34 C29 33 29 33 27 30 C26.13375 29.5875 25.2675 29.175 24.375 28.75 C16.20929704 24.5159318 12.02991258 18.86428811 7.67578125 10.88671875 C5.5027392 7.14341321 2.90728259 4.19091992 0 1 C0 0.67 0 0.34 0 0 Z " fill="#313131" transform="translate(102,101)"/>
<path d="M0 0 C0.66 0.66 1.32 1.32 2 2 C1.52949219 2.37511719 1.05898438 2.75023437 0.57421875 3.13671875 C-3.11788882 6.17143243 -5.64401977 8.78403538 -8 13 C-8.66 13 -9.32 13 -10 13 C-10.33 14.65 -10.66 16.3 -11 18 C-10.01 18.66 -9.02 19.32 -8 20 C-8 19.34 -8 18.68 -8 18 C-6.02 17.34 -4.04 16.68 -2 16 C-2 17.32 -2 18.64 -2 20 C-2.66 20 -3.32 20 -4 20 C-5.50930183 23.3863251 -5.50930183 23.3863251 -6 27 C-5.68546875 26.37351562 -5.3709375 25.74703125 -5.046875 25.1015625 C-4.61890625 24.28429687 -4.1909375 23.46703125 -3.75 22.625 C-3.33234375 21.81289063 -2.9146875 21.00078125 -2.484375 20.1640625 C-0.85732025 17.79198795 0.35386639 17.02905196 3 16 C1.51401073 19.98481701 -0.33836704 23.61531744 -2.4375 27.3125 C-3.03433594 28.38113281 -3.63117187 29.44976562 -4.24609375 30.55078125 C-5.11427734 31.76314453 -5.11427734 31.76314453 -6 33 C-6.99 33 -7.98 33 -9 33 C-9.12375 33.556875 -9.2475 34.11375 -9.375 34.6875 C-10.05976855 37.22114364 -10.99133763 39.57921032 -12 42 C-12.66 42 -13.32 42 -14 42 C-14.33 42.66 -14.66 43.32 -15 44 C-15.99 43.34 -16.98 42.68 -18 42 C-18 41.34 -18 40.68 -18 40 C-18.928125 40.2784375 -18.928125 40.2784375 -19.875 40.5625 C-22 41 -22 41 -24 40 C-22.86059291 36.14354522 -21.82205934 32.93494171 -19 30 C-18.01 30 -17.02 30 -16 30 C-16.66 29.67 -17.32 29.34 -18 29 C-16.48604167 16.58554166 -8.66880829 8.48501731 0 0 Z " fill="#111111" transform="translate(36,37)"/>
<path d="M0 0 C1.86445004 1.86445004 1.13235666 4.50471413 1.13867188 6.98291016 C1.13416016 7.7929248 1.12964844 8.60293945 1.125 9.4375 C1.12306641 10.2526709 1.12113281 11.0678418 1.11914062 11.90771484 C1.07794106 17.66306512 0.73711847 23.28733188 0 29 C-1 29 -2 29 -3 29 C-5.3396553 29.98511802 -7.67328135 30.98470459 -10 32 C-10.21686645 27.62241212 -10.41375794 23.2445238 -10.59204102 18.86523438 C-10.65553821 17.37508038 -10.72452491 15.88514989 -10.79907227 14.39550781 C-10.90518271 12.25620734 -10.99163253 10.11688395 -11.07421875 7.9765625 C-11.13182373 6.68830566 -11.18942871 5.40004883 -11.2487793 4.07275391 C-11.16668213 3.05874512 -11.08458496 2.04473633 -11 1 C-6.80117625 -1.79921583 -4.87872887 -0.86558093 0 0 Z " fill="#474747" transform="translate(122,35)"/>
<path d="M0 0 C0.33 0 0.66 0 1 0 C0.67447917 1.98567708 0.34895833 3.97135417 0.0234375 5.95703125 C-0.19577848 8.31755824 -0.19577848 8.31755824 2 11 C1.3409159 12.66967972 0.67349161 14.33607955 0 16 C0.29519768 18.7336432 0.29519768 18.7336432 1 21 C1.66 21 2.32 21 3 21 C3.66 20.01 4.32 19.02 5 18 C5.66 18.33 6.32 18.66 7 19 C6.24088921 20.48521677 5.46728766 21.96303425 4.6875 23.4375 C4.25824219 24.26121094 3.82898438 25.08492187 3.38671875 25.93359375 C2 28 2 28 -1 29 C-1.33 29.66 -1.66 30.32 -2 31 C-2.66 31 -3.32 31 -4 31 C-4.495 32.485 -4.495 32.485 -5 34 C-5.66 34 -6.32 34 -7 34 C-7.226875 34.94875 -7.45375 35.8975 -7.6875 36.875 C-9 40 -9 40 -11.625 41.375 C-12.40875 41.58125 -13.1925 41.7875 -14 42 C-14.06058594 41.36191406 -14.12117187 40.72382813 -14.18359375 40.06640625 C-14.30927734 38.82697266 -14.30927734 38.82697266 -14.4375 37.5625 C-14.55931641 36.32693359 -14.55931641 36.32693359 -14.68359375 35.06640625 C-14.78930815 33.01337975 -14.78930815 33.01337975 -16 32 C-15.54777932 28.41342221 -13.92944849 26.45310835 -11.625 23.75 C-8.8666783 20.30770422 -7.09773167 17.37046822 -5.75390625 13.1953125 C-4.19529033 8.65675216 -2.02188757 4.34745785 0 0 Z " fill="#242525" transform="translate(208,139)"/>
<path d="M0 0 C3.3 0 6.6 0 10 0 C10 0.33 10 0.66 10 1 C6.7 1.33 3.4 1.66 0 2 C0.11808467 9.77802075 0.2423215 17.55590937 0.37231445 25.33374023 C0.41568304 27.98084832 0.45735668 30.62798472 0.49731445 33.27514648 C0.55497023 37.075445 0.61867844 40.87560068 0.68359375 44.67578125 C0.70030624 45.86335526 0.71701874 47.05092926 0.73423767 48.27449036 C0.75418289 49.37540512 0.77412811 50.47631989 0.79467773 51.6105957 C0.81022202 52.58100296 0.8257663 53.55141022 0.84178162 54.55122375 C0.90465129 57.13795675 0.90465129 57.13795675 2 60 C2.66 60 3.32 60 4 60 C4 59.34 4 58.68 4 58 C4.66 58 5.32 58 6 58 C6.66 56.68 7.32 55.36 8 54 C8.66 54 9.32 54 10 54 C10.22668482 75.71136828 10.22668482 75.71136828 9 81 C8.01 81.99 8.01 81.99 7 83 C6.34 82.01 5.68 81.02 5 80 C4.505 80.495 4.505 80.495 4 81 C2.67151309 82.00642948 1.33849671 83.00692179 0 84 C-0.02505615 83.32420898 -0.0501123 82.64841797 -0.07592773 81.95214844 C-0.19210742 78.8845832 -0.31473437 75.81730842 -0.4375 72.75 C-0.47681641 71.68652344 -0.51613281 70.62304688 -0.55664062 69.52734375 C-0.59853516 68.50253906 -0.64042969 67.47773437 -0.68359375 66.421875 C-0.72025146 65.47924805 -0.75690918 64.53662109 -0.79467773 63.56542969 C-0.91293927 61.09503333 -0.91293927 61.09503333 -1.50375366 59.14796448 C-2.06317999 56.72653024 -2.13422678 54.55215873 -2.14526367 52.06713867 C-2.15164352 51.08899704 -2.15802338 50.11085541 -2.16459656 49.10307312 C-2.16570938 48.05198868 -2.1668222 47.00090424 -2.16796875 45.91796875 C-2.17129715 44.83042801 -2.17462555 43.74288727 -2.17805481 42.62239075 C-2.18311605 40.32175112 -2.18546338 38.02110417 -2.18530273 35.72045898 C-2.1874852 32.21130171 -2.2056386 28.70246088 -2.22460938 25.19335938 C-2.22754431 22.95573024 -2.22952843 20.71809961 -2.23046875 18.48046875 C-2.23765427 17.435457 -2.24483978 16.39044525 -2.25224304 15.31376648 C-2.23509335 9.80871463 -1.84209138 5.20047448 0 0 Z " fill="#404040" transform="translate(159,46)"/>
<path d="M0 0 C5.07073716 1.44277881 7.1628069 2.67020938 9.96484375 7.00390625 C12.50075045 11.89389993 13.76455156 17.5207138 13 23 C11.125 24.6875 11.125 24.6875 9 26 C8.34 26.99 7.68 27.98 7 29 C3.875 30.1875 3.875 30.1875 1 31 C-0.18135474 24.51650193 -0.11322974 18.13785493 -0.0625 11.5625 C-0.05798828 10.44939453 -0.05347656 9.33628906 -0.04882812 8.18945312 C-0.03711193 5.45957899 -0.02070699 2.72981826 0 0 Z " fill="#2A2B2A" transform="translate(111,122)"/>
<path d="M0 0 C-0.33 7.26 -0.66 14.52 -1 22 C-6 24 -6 24 -11 25 C-11 17.08 -11 9.16 -11 1 C-9 0 -9 0 0 0 Z " fill="#5E5E5E" transform="translate(170,47)"/>
<path d="M0 0 C4.33458535 3.37263192 7.1011064 5.74152541 9 11 C9.928125 11.4640625 9.928125 11.4640625 10.875 11.9375 C14.01748078 13.50874039 15.20999352 16.05927508 17 19 C16.34 19.33 15.68 19.66 15 20 C15 19.34 15 18.68 15 18 C12.05908413 18.18415432 12.05908413 18.18415432 9 19 C7.56362302 20.95163118 7.56362302 20.95163118 7 23 C3.0898827 21.51685206 2.05668388 19.53749628 0 16 C-0.886875 15.113125 -1.77375 14.22625 -2.6875 13.3125 C-3.450625 12.549375 -4.21375 11.78625 -5 11 C-5 10.34 -5 9.68 -5 9 C-5.99 8.67 -6.98 8.34 -8 8 C-7.67 7.01 -7.34 6.02 -7 5 C-5.35 4.67 -3.7 4.34 -2 4 C-2 4.66 -2 5.32 -2 6 C-0.68 6 0.64 6 2 6 C0.68 4.68 -0.64 3.36 -2 2 C-1.34 2 -0.68 2 0 2 C0 1.34 0 0.68 0 0 Z " fill="#636363" transform="translate(190,33)"/>
<path d="M0 0 C1.7681699 3.2197679 2.72137683 6.40087717 3.6875 9.9375 C6.65756953 19.76412411 11.42421546 28.57469613 17.93359375 36.51171875 C19 38 19 38 19 40 C19.66 40 20.32 40 21 40 C22.41015625 41.46875 22.41015625 41.46875 24.0625 43.5 C38.76287498 60.69093437 58.5767715 68.6748676 80 74 C80 74.33 80 74.66 80 75 C62.25031258 74.59408199 43.09242758 66.01453695 30 54 C30 53.34 30 52.68 30 52 C29.13375 51.9071875 29.13375 51.9071875 28.25 51.8125 C25.07551517 50.66615826 23.87151425 48.74043158 22 46 C22 45.34 22 44.68 22 44 C21.34 44 20.68 44 20 44 C20 43.34 20 42.68 20 42 C19.34 42 18.68 42 18 42 C8.65190021 30.37597395 0.11844197 16.25148135 -1 1 C-0.67 0.67 -0.34 0.34 0 0 Z " fill="#1F1F1F" transform="translate(21,128)"/>
<path d="M0 0 C0.33 0 0.66 0 1 0 C2.38297872 20.53191489 2.38297872 20.53191489 1 30 C-4.55298212 27.69610316 -7.90608363 24.41304295 -11.875 20.0625 C-12.46796875 19.44181641 -13.0609375 18.82113281 -13.671875 18.18164062 C-14.23132813 17.57642578 -14.79078125 16.97121094 -15.3671875 16.34765625 C-15.87362793 15.80117432 -16.38006836 15.25469238 -16.90185547 14.69165039 C-18 13 -18 13 -18 9 C-17.01 8.67 -16.02 8.34 -15 8 C-14.814375 8.928125 -14.814375 8.928125 -14.625 9.875 C-14.12802644 12.19120832 -14.12802644 12.19120832 -12 14 C-9.22880216 12.2941742 -9.22880216 12.2941742 -8 11 C-7.01 11 -6.02 11 -5 11 C-5 11.66 -5 12.32 -5 13 C-4.01 13 -3.02 13 -2 13 C-0.65754108 10.31508215 -0.97450627 7.9149467 -1.0625 4.97265625 C-1 3 -1 3 0 0 Z " fill="#1E1F1F" transform="translate(169,146)"/>
<path d="M0 0 C0 0.66 0 1.32 0 2 C-0.67160156 1.855625 -1.34320313 1.71125 -2.03515625 1.5625 C-10.6263922 -0.03380707 -18.90565248 -0.13653423 -27.62182617 -0.02246094 C-32.62460503 0.03484935 -37.4085262 -0.05620491 -42.375 -0.75 C-48.27057923 -1.41086139 -53.56772251 0.04873208 -59.21630859 1.61425781 C-62.91078129 2.62457949 -65.34250188 3.13842657 -69 2 C-50.62755977 -8.00309148 -18.94352668 -9.47176334 0 0 Z " fill="#020202" transform="translate(148,22)"/>
<path d="M0 0 C2 0 2 0 4.625 2.5 C5.40875 3.325 6.1925 4.15 7 5 C7.66 4.34 8.32 3.68 9 3 C9.99 3 10.98 3 12 3 C12 3.99 12 4.98 12 6 C13.65 5.34 15.3 4.68 17 4 C17.99 4.99 18.98 5.98 20 7 C19.67 7.99 19.34 8.98 19 10 C20.37168238 12.19038423 20.37168238 12.19038423 22 14 C21.484375 14.721875 20.96875 15.44375 20.4375 16.1875 C18.78557018 19.4195366 18.93648325 20.61608307 20 24 C20.66 24 21.32 24 22 24 C23.625 25.5 23.625 25.5 25 27 C24.67 27.66 24.34 28.32 24 29 C17.39907914 24.43803025 13.08280237 19.88027807 9 13 C6.88932632 9.73804977 4.7563923 6.65023823 2.25 3.6875 C0 1 0 1 0 0 Z " fill="#333434" transform="translate(102,101)"/>
<path d="M0 0 C0.66 0.33 1.32 0.66 2 1 C2 7.93 2 14.86 2 22 C-0.70136634 23.35068317 -2.13563046 22.73985317 -5.0625 22.125 C-5.96097656 21.94195312 -6.85945313 21.75890625 -7.78515625 21.5703125 C-10 21 -10 21 -11 20 C-11.07258946 17.81360547 -11.08373783 15.62499611 -11.0625 13.4375 C-11.05347656 12.23996094 -11.04445313 11.04242188 -11.03515625 9.80859375 C-11.02355469 8.88175781 -11.01195313 7.95492187 -11 7 C-9.02 7.99 -9.02 7.99 -7 9 C-6.67 7.68 -6.34 6.36 -6 5 C-5.01 5 -4.02 5 -3 5 C-1.28288757 2.55503957 -1.28288757 2.55503957 0 0 Z " fill="#161616" transform="translate(122,161)"/>
<path d="M0 0 C0.33 0 0.66 0 1 0 C1.02578125 0.65226562 1.0515625 1.30453125 1.078125 1.9765625 C1.51564671 8.71837437 2.84694767 12.84694767 7.75 17.75 C9 19 9 19 9 21 C9.99 21.33 10.98 21.66 12 22 C13.04976964 25.14930893 13.10131595 27.38814456 13.0625 30.6875 C13.05347656 31.68136719 13.04445313 32.67523438 13.03515625 33.69921875 C13.02355469 34.45847656 13.01195313 35.21773437 13 36 C12.55914062 35.55785156 12.11828125 35.11570313 11.6640625 34.66015625 C10.24373346 33.24316132 8.81065109 31.83896893 7.375 30.4375 C5 28 5 28 4 26 C2.68 27.65 1.36 29.3 0 31 C-0.02505615 30.33468262 -0.0501123 29.66936523 -0.07592773 28.98388672 C-0.19251136 25.94742513 -0.31495351 22.91122654 -0.4375 19.875 C-0.47681641 18.82828125 -0.51613281 17.7815625 -0.55664062 16.703125 C-0.72887169 12.5165853 -0.90681334 8.51059674 -1.66015625 4.3828125 C-1.77230469 3.59648438 -1.88445313 2.81015625 -2 2 C-1.34 1.34 -0.68 0.68 0 0 Z " fill="#1C1D1D" transform="translate(63,47)"/>
<path d="M0 0 C7.2817019 3.07449636 11.95094122 10.82943087 16.50390625 17.0234375 C19.92677069 21.54555083 23.47302907 25.7979165 27.9375 29.3125 C31.6776154 32.26314513 34.08075325 36.17403224 36.80078125 40.0390625 C39.76007205 44.02332968 43.09048609 47.58611658 46.4609375 51.22265625 C49.06680088 54.07306988 51.58432227 56.97548757 54.0625 59.9375 C54.79597656 60.81277344 55.52945313 61.68804687 56.28515625 62.58984375 C57.88633226 64.84024375 58.59326596 66.30304043 59 69 C58.01 68.505 58.01 68.505 57 68 C57 67.34 57 66.68 57 66 C56.34 66 55.68 66 55 66 C53.41466298 64.28667246 51.90458785 62.50310953 50.4375 60.6875 C49.63183594 59.70136719 48.82617188 58.71523437 47.99609375 57.69921875 C46 55 46 55 45 52 C44.34 52 43.68 52 43 52 C41.60674046 50.44759659 40.28619872 48.82970015 39 47.1875 C34.92654237 42.08910786 30.65065768 37.25317602 26.23046875 32.44921875 C24.45547045 30.50014006 22.73608945 28.53544663 21.0625 26.5 C19.17245363 24.11761881 19.17245363 24.11761881 17.5546875 22.58984375 C15.85882977 20.85563748 14.48391296 19.02683993 13.0625 17.0625 C11.33486283 14.71446445 9.69462745 12.69462745 7.625 10.625 C7.08875 10.08875 6.5525 9.5525 6 9 C6 8.34 6 7.68 6 7 C5.34 7 4.68 7 4 7 C0 2.52941176 0 2.52941176 0 0 Z " fill="#7C7C7C" transform="translate(94,75)"/>
<path d="M0 0 C2.97 0.495 2.97 0.495 6 1 C6.68707555 3.49064888 7 5.37886292 7 8 C7.66 8.33 8.32 8.66 9 9 C8.6841833 15.00051731 7.44570437 20.26613931 5.5625 25.9375 C5.34505127 26.60015869 5.12760254 27.26281738 4.90356445 27.94555664 C3.90867853 30.84646601 3.19625308 32.80374692 1 35 C0.4375 33.0625 0.4375 33.0625 0 31 C0.33 30.67 0.66 30.34 1 30 C0.938125 28.39125 0.938125 28.39125 0.875 26.75 C1.00705468 22.78835969 1.70996954 21.14879188 4 18 C3.505 17.54625 3.01 17.0925 2.5 16.625 C1 15 1 15 1 13 C0.01 13.33 -0.98 13.66 -2 14 C-1.43393721 9.30976546 -0.81462495 4.65499974 0 0 Z " fill="#404040" transform="translate(213,119)"/>
<path d="M0 0 C0 0.66 0 1.32 0 2 C0.99 2.33 1.98 2.66 3 3 C4.44444444 9.25925926 4.44444444 9.25925926 2.5 12.5 C0 14 0 14 -3.5 14 C-7.30185823 12.91375479 -8.88912969 12.34221133 -11 9 C-10.9375 5.375 -10.9375 5.375 -10 2 C-6.3558226 -0.4294516 -4.28758728 -0.16179575 0 0 Z " fill="#2E2E2E" transform="translate(193,103)"/>
<path d="M0 0 C0.33 0 0.66 0 1 0 C1.14141393 10.05610192 0.72904559 19.97562315 0 30 C-0.66 29.34 -1.32 28.68 -2 28 C-2.66 28.33 -3.32 28.66 -4 29 C-5.04449911 25.86650268 -4.93423645 25.01031744 -4 22 C-6.475 21.01 -6.475 21.01 -9 20 C-9.66 14.06 -10.32 8.12 -11 2 C-10.01 2.33 -9.02 2.66 -8 3 C-8 6.3 -8 9.6 -8 13 C-4.00381882 9.95028279 -1.37812135 7.92841888 -0.375 2.8125 C-0.25125 1.884375 -0.1275 0.95625 0 0 Z " fill="#494949" transform="translate(223,100)"/>
<path d="M0 0 C0.66 0 1.32 0 2 0 C1.91621094 1.14339844 1.83242187 2.28679687 1.74609375 3.46484375 C1.64295206 4.95571002 1.54010253 6.44659653 1.4375 7.9375 C1.38142578 8.69224609 1.32535156 9.44699219 1.26757812 10.22460938 C1.13823843 12.14745958 1.06483088 14.07389548 1 16 C1.33 16.33 1.66 16.66 2 17 C2.12375 17.66 2.2475 18.32 2.375 19 C2.684375 19.99 2.684375 19.99 3 21 C3.99 21.33 4.98 21.66 6 22 C6 22.66 6 23.32 6 24 C5.34 24 4.68 24 4 24 C3.03929566 26.88211302 2.89418117 28.69850044 2.9375 31.6875 C2.94652344 32.49574219 2.95554688 33.30398437 2.96484375 34.13671875 C2.97644531 34.75160156 2.98804688 35.36648437 3 36 C0.03 36.495 0.03 36.495 -3 37 C-3 36.01 -3 35.02 -3 34 C-3.66 33.34 -4.32 32.68 -5 32 C-4.505 30.515 -4.505 30.515 -4 29 C-3.65746994 26.54184311 -3.34659509 24.08985761 -3.0625 21.625 C-2.19705089 14.39030874 -1.15798122 7.19426633 0 0 Z " fill="#333433" transform="translate(212,115)"/>
<path d="M0 0 C4.00326309 0.18412634 6.24534197 0.8833952 8.9921875 3.72265625 C9.96759334 4.82328311 10.92833902 5.93705386 11.875 7.0625 C12.37257813 7.63033203 12.87015625 8.19816406 13.3828125 8.78320312 C14.60145986 10.17761693 15.80254573 11.58734487 17 13 C14.66666667 13 12.33333333 13 10 13 C10 13.99 10 14.98 10 16 C7 17 7 17 5 16.3125 C2.62196828 14.75191668 1.48212795 13.43402985 0 11 C-0.29296875 8.203125 -0.29296875 8.203125 -0.1875 5.25 C-0.16042969 4.26515625 -0.13335937 3.2803125 -0.10546875 2.265625 C-0.07066406 1.51796875 -0.03585938 0.7703125 0 0 Z " fill="#373838" transform="translate(64,46)"/>
<path d="M0 0 C0.66 1.32 1.32 2.64 2 4 C2.66 4 3.32 4 4 4 C4.04254356 5.99954746 4.04080783 8.00041636 4 10 C2.27026886 11.72973114 -0.02516963 11.17208117 -2.375 11.1875 C-3.35210937 11.20167969 -4.32921875 11.21585938 -5.3359375 11.23046875 C-8 11 -8 11 -11 9 C-10.67470941 6.07238473 -10.40430823 3.67384706 -8.875 1.125 C-5.98014 -0.611916 -3.29140103 -0.18630572 0 0 Z " fill="#0C0C0C" transform="translate(46,103)"/>
<path d="M0 0 C0.66 0 1.32 0 2 0 C1.67 0.66 1.34 1.32 1 2 C0.67 1.34 0.34 0.68 0 0 Z M-5.25 1.3125 C-4.13625 1.6528125 -4.13625 1.6528125 -3 2 C-1.9064649 5.28060529 -1.94630405 5.92323257 -3.1875 9 C-4.76168389 12.06937648 -5.69294246 12.8760352 -8.94140625 14.1875 C-11.95403896 14.92732007 -14.9333206 15.537105 -18 16 C-17.67 12.7 -17.34 9.4 -17 6 C-16.2575 5.731875 -15.515 5.46375 -14.75 5.1875 C-11.98116678 4.14904615 -11.98116678 4.14904615 -10 2.3125 C-8 1 -8 1 -5.25 1.3125 Z M-2 3 C0 4 0 4 0 4 Z " fill="#303130" transform="translate(85,12)"/>
<path d="M0 0 C0.99 0 1.98 0 3 0 C3 0.66 3 1.32 3 2 C3.66 2 4.32 2 5 2 C5.33 1.34 5.66 0.68 6 0 C6.99 0.33 7.98 0.66 9 1 C9.144375 1.639375 9.28875 2.27875 9.4375 2.9375 C9.623125 3.618125 9.80875 4.29875 10 5 C11.88316159 6.10836423 11.88316159 6.10836423 14 7 C15.75 8.625 15.75 8.625 17 10 C16.34 11.32 15.68 12.64 15 14 C14.34 14 13.68 14 13 14 C13 13.01 13 12.02 13 11 C11.02 11.99 9.04 12.98 7 14 C6.67 13.01 6.34 12.02 6 11 C5.01 10.67 4.02 10.34 3 10 C3 9.34 3 8.68 3 8 C2.34 8 1.68 8 1 8 C-1.125 3.375 -1.125 3.375 0 0 Z " fill="#373938" transform="translate(101,93)"/>
<path d="M0 0 C0.33 0 0.66 0 1 0 C1 3.3 1 6.6 1 10 C1.99 9.67 2.98 9.34 4 9 C4.99 9.66 5.98 10.32 7 11 C7.99 10.67 8.98 10.34 10 10 C10 8.35 10 6.7 10 5 C10.33 5 10.66 5 11 5 C11 10.28 11 15.56 11 21 C6 21 6 21 4.3125 19.5625 C3.879375 19.046875 3.44625 18.53125 3 18 C2.34 17.67 1.68 17.34 1 17 C-0.32421988 13.5020607 -0.09945529 9.94552923 -0.0625 6.25 C-0.05347656 5.07953125 -0.04445312 3.9090625 -0.03515625 2.703125 C-0.02355469 1.81109375 -0.01195312 0.9190625 0 0 Z M7 21 C7.99 21.33 8.98 21.66 10 22 C9.01 22.33 8.02 22.66 7 23 C7 22.34 7 21.68 7 21 Z " fill="#222222" transform="translate(63,87)"/>
<path d="M0 0 C1.32 0.33 2.64 0.66 4 1 C4.103125 1.763125 4.20625 2.52625 4.3125 3.3125 C5.04364039 6.17059424 5.76951913 7.15742885 8 9 C7.01 9.33 6.02 9.66 5 10 C5 9.34 5 8.68 5 8 C3.68 8 2.36 8 1 8 C0.01 8 -0.98 8 -2 8 C-2.22906662 10.28837851 -2.22906662 10.28837851 0.1875 12.3125 C1.115625 13.199375 2.04375 14.08625 3 15 C4.66666667 16.66666667 6.33333333 18.33333333 8 20 C7.67 20.66 7.34 21.32 7 22 C6.60731934 21.5968457 6.21463867 21.19369141 5.81005859 20.77832031 C4.0038111 18.93014113 2.18950998 17.09006646 0.375 15.25 C-0.24246094 14.61578125 -0.85992187 13.9815625 -1.49609375 13.328125 C-5.10567732 9.68054581 -8.61471133 6.67165279 -13 4 C-12.34 3.67 -11.68 3.34 -11 3 C-9.33333333 3.66666667 -7.66666667 4.33333333 -6 5 C-5.34 4.67 -4.68 4.34 -4 4 C-4.99 3.67 -5.98 3.34 -7 3 C-1.25 1.875 -1.25 1.875 1 3 C0.67 2.01 0.34 1.02 0 0 Z " fill="#565656" transform="translate(185,31)"/>
<path d="M0 0 C3.3 0 6.6 0 10 0 C10 0.33 10 0.66 10 1 C6.7 1.33 3.4 1.66 0 2 C0.33 20.81 0.66 39.62 1 59 C0.01 59 -0.98 59 -2 59 C-2.05082519 51.7226053 -2.08578622 44.44525661 -2.10986328 37.16772461 C-2.11990364 34.69342335 -2.13353863 32.21913391 -2.15087891 29.74487305 C-2.17521328 26.18275023 -2.18650299 22.6207847 -2.1953125 19.05859375 C-2.20563507 17.95728622 -2.21595764 16.8559787 -2.22659302 15.72129822 C-2.22741251 10.07643553 -1.9157569 5.32633449 0 0 Z " fill="#2B2B2B" transform="translate(159,46)"/>
<path d="M0 0 C2.87730152 1.13036845 4.05884984 2.07540136 6 4.5625 C8.16845753 7.20530761 8.83569628 7.34531647 12 8 C13.1577506 11.47325181 13.06866652 14.36067448 13 18 C9.63002746 16.5384164 7.39254873 14.6619112 4.8125 12.0625 C4.11769531 11.37285156 3.42289062 10.68320313 2.70703125 9.97265625 C1 8 1 8 0 5 C0.66 5 1.32 5 2 5 C1.34 3.35 0.68 1.7 0 0 Z " fill="#101010" transform="translate(111,88)"/>
<path d="M0 0 C0 0.33 0 0.66 0 1 C-5.61 1 -11.22 1 -17 1 C-17.33 1.99 -17.66 2.98 -18 4 C-19.13953125 3.95746094 -20.2790625 3.91492188 -21.453125 3.87109375 C-26.11480836 3.87006695 -30.2704676 4.85708409 -34.75 6.0625 C-42.9431584 8.26396604 -42.9431584 8.26396604 -47 7 C-32.46870757 -0.91173332 -16.08139159 -0.55912835 0 0 Z " fill="#131313" transform="translate(126,17)"/>
<path d="M0 0 C1.17056613 3.90205922 0.62389652 5.50627481 -1.1875 9.1875 C-2.84420743 12.59571284 -4.38177085 15.96805965 -5.75 19.5 C-8.38379839 25.46070162 -12.74839086 30.13490364 -17 35 C-17.70640625 35.81726563 -18.4128125 36.63453125 -19.140625 37.4765625 C-20.74968578 39.32763649 -22.36828181 41.16890788 -24 43 C-24.66 42.67 -25.32 42.34 -26 42 C-24.71937515 40.2925002 -23.38232443 38.62626404 -22 37 C-21.34 37 -20.68 37 -20 37 C-19.75378906 36.46503906 -19.50757813 35.93007812 -19.25390625 35.37890625 C-17.68876654 32.40952905 -15.8172032 29.7189303 -13.9375 26.9375 C-8.31961123 18.4417037 -4.16304208 9.27202727 0 0 Z " fill="#0A0A0A" transform="translate(208,135)"/>
<path d="M0 0 C0.33 0 0.66 0 1 0 C1 4.62 1 9.24 1 14 C-2.57274103 15.42909641 -5.30973516 16.36738317 -9 17 C-9 14.36 -9 11.72 -9 9 C-7 9 -5 9 -3 9 C-2.67 8.34 -2.34 7.68 -2 7 C-1.34 7.33 -0.68 7.66 0 8 C-0.185625 7.236875 -0.37125 6.47375 -0.5625 5.6875 C-1 3 -1 3 0 0 Z " fill="#575756" transform="translate(168,55)"/>
<path d="M0 0 C1.20205614 3.81577963 1.22194982 7.64635989 1.31640625 11.609375 C1.33718735 12.33618469 1.35796844 13.06299438 1.37937927 13.81182861 C1.44455512 16.12445991 1.5036104 18.43720093 1.5625 20.75 C1.60571566 22.32162575 1.64933092 23.89324056 1.69335938 25.46484375 C1.80020356 29.30978453 1.90156024 33.15483524 2 37 C-0.51862834 34.06898914 -1.37998046 32.23199996 -1.4765625 28.375 C-1.5075 27.50359375 -1.5384375 26.6321875 -1.5703125 25.734375 C-1.58835937 24.83203125 -1.60640625 23.9296875 -1.625 23 C-1.67619343 21.20823009 -1.73075753 19.41655259 -1.7890625 17.625 C-1.81540771 16.43777344 -1.81540771 16.43777344 -1.84228516 15.2265625 C-1.92737195 12.99654842 -1.92737195 12.99654842 -2.57568359 10.8984375 C-3.37464407 7.3238019 -1.14179314 3.42537942 0 0 Z " fill="#1A1A1A" transform="translate(19,92)"/>
<path d="M0 0 C-0.66 0 -1.32 0 -2 0 C-2.33 0.99 -2.66 1.98 -3 3 C-3.66 3 -4.32 3 -5 3 C-5.1546875 3.9590625 -5.1546875 3.9590625 -5.3125 4.9375 C-5.539375 5.618125 -5.76625 6.29875 -6 7 C-6.99 7.33 -7.98 7.66 -9 8 C-9.3449145 9.33038449 -9.67516582 10.66457061 -10 12 C-11.28796166 14.02951535 -12.61558 16.03501678 -14 18 C-15.25541557 14.23375329 -14.37061958 12.62811066 -13 9 C-12.01 9.33 -11.02 9.66 -10 10 C-10.33 9.01 -10.66 8.02 -11 7 C-10.34 6.34 -9.68 5.68 -9 5 C-9 4.01 -9 3.02 -9 2 C-7 -1 -7 -1 -5.0625 -1.8125 C-3 -2 -3 -2 0 0 Z " fill="#1D1D1D" transform="translate(44,47)"/>
<path d="M0 0 C0.268125 0.598125 0.53625 1.19625 0.8125 1.8125 C1.84253546 4.05845275 1.84253546 4.05845275 3.6875 5.3125 C5 7 5 7 4.6875 10.6875 C4.460625 11.780625 4.23375 12.87375 4 14 C3.67 13.01 3.34 12.02 3 11 C2.67 11.66 2.34 12.32 2 13 C0.35 13 -1.3 13 -3 13 C-3.33 13.66 -3.66 14.32 -4 15 C-4.45356243 8.53673535 -3.59378942 5.39068413 0 0 Z " fill="#252625" transform="translate(67,71)"/>
<path d="M0 0 C0.66 0 1.32 0 2 0 C1.67 6.93 1.34 13.86 1 21 C0.34 21.33 -0.32 21.66 -1 22 C-2.7074998 20.71937515 -4.37373596 19.38232443 -6 18 C-6 17.34 -6 16.68 -6 16 C-5.01 15.67 -4.02 15.34 -3 15 C-2.67 13.02 -2.34 11.04 -2 9 C-1.67 9 -1.34 9 -1 9 C-0.67 6.03 -0.34 3.06 0 0 Z " fill="#2F2F2F" transform="translate(122,75)"/>
<path d="M0 0 C1.875 0.3125 1.875 0.3125 4 1 C4.66 1.99 5.32 2.98 6 4 C5.37465431 6.6459202 4.66817031 9.02190834 3.75 11.5625 C3.51925781 12.24763672 3.28851563 12.93277344 3.05078125 13.63867188 C2.01578177 16.61795003 1.25654812 18.74345188 -1 21 C-1.5625 19.0625 -1.5625 19.0625 -2 17 C-1.67 16.67 -1.34 16.34 -1 16 C-1.04125 14.9275 -1.0825 13.855 -1.125 12.75 C-0.99294532 8.78835969 -0.29003046 7.14879188 2 4 C1.34 3.67 0.68 3.34 0 3 C0 2.01 0 1.02 0 0 Z " fill="#393B3A" transform="translate(215,133)"/>
<path d="M0 0 C1.7681699 3.2197679 2.72137683 6.40087717 3.6875 9.9375 C5.57459193 16.27069489 8.21512789 21.51185967 11.51171875 27.22265625 C12.76651774 29.56428902 13.53416494 31.40995705 14 34 C9.63892388 30.12348789 7.32127511 26.32308469 5 21 C4.64808594 20.21238281 4.29617187 19.42476562 3.93359375 18.61328125 C1.51558464 12.92962146 -0.36387124 7.17419091 -1 1 C-0.67 0.67 -0.34 0.34 0 0 Z " fill="#4F4F4F" transform="translate(21,128)"/>
<path d="M0 0 C0.66 0.33 1.32 0.66 2 1 C2 1.66 2 2.32 2 3 C2.66 3 3.32 3 4 3 C4.04254356 4.99954746 4.04080783 7.00041636 4 9 C3 10 3 10 -0.5625 10.0625 C-1.696875 10.041875 -2.83125 10.02125 -4 10 C-4.66 8.68 -5.32 7.36 -6 6 C-4 3 -4 3 -1.875 2.3125 C-1.25625 2.209375 -0.6375 2.10625 0 2 C0 1.34 0 0.68 0 0 Z " fill="#1B1B1B" transform="translate(46,104)"/>
<path d="M0 0 C5.32325249 2.2475955 8.37778042 6.65749201 12 11 C12.62261719 11.73605469 13.24523437 12.47210938 13.88671875 13.23046875 C14.43972656 13.91753906 14.99273437 14.60460937 15.5625 15.3125 C16.05878906 15.92738281 16.55507812 16.54226562 17.06640625 17.17578125 C18 19 18 19 17.65234375 21.23046875 C17.43707031 21.81441406 17.22179687 22.39835937 17 23 C16.484375 22.175 15.96875 21.35 15.4375 20.5 C13.08854852 16.93841292 10.27849904 13.86492754 7.390625 10.734375 C6 9 6 9 6 7 C5.34 7 4.68 7 4 7 C0 2.52941176 0 2.52941176 0 0 Z " fill="#747474" transform="translate(94,75)"/>
<path d="M0 0 C0.66 0.33 1.32 0.66 2 1 C2 3.31 2 5.62 2 8 C1 8 0 8 -1 8 C-3.3396553 8.98511802 -5.67328135 9.98470459 -8 11 C-8 7.7 -8 4.4 -8 1 C-7.67 1.99 -7.34 2.98 -7 4 C-6.34 4 -5.68 4 -5 4 C-4.67 3.34 -4.34 2.68 -4 2 C-4 2.66 -4 3.32 -4 4 C-3.34 4 -2.68 4 -2 4 C-1.34 2.68 -0.68 1.36 0 0 Z " fill="#444444" transform="translate(120,56)"/>
<path d="M0 0 C3.50066761 -0.43758345 5.59100522 0.18523915 8.59375 1.84375 C13.08306332 4.16035078 17.62526211 5.48764931 22.5 6.75 C23.32242188 6.97042969 24.14484375 7.19085938 24.9921875 7.41796875 C26.9927507 7.95300309 28.99609663 8.47761493 31 9 C31 9.33 31 9.66 31 10 C20.19537823 9.75290886 8.24199976 7.3488553 0 0 Z " fill="#5A5A5A" transform="translate(70,193)"/>
<path d="M0 0 C0.763125 0.20625 1.52625 0.4125 2.3125 0.625 C2.3125 0.955 2.3125 1.285 2.3125 1.625 C0.0025 1.955 -2.3075 2.285 -4.6875 2.625 C-3.8270861 6.95729715 -3.8270861 6.95729715 -1.6875 10.625 C0.31208364 10.66580783 2.31295254 10.66754356 4.3125 10.625 C5.3025 8.645 6.2925 6.665 7.3125 4.625 C7.6425 4.625 7.9725 4.625 8.3125 4.625 C8.66901483 7.83363349 8.54933549 9.26501006 6.75 12 C4.3125 13.625 4.3125 13.625 0.8125 13.625 C-2.98935823 12.53875479 -4.57662969 11.96721133 -6.6875 8.625 C-6.625 5 -6.625 5 -5.6875 1.625 C-2.6875 -0.375 -2.6875 -0.375 0 0 Z " fill="#161616" transform="translate(188.6875,103.375)"/>
<path d="M0 0 C0.99 0.33 1.98 0.66 3 1 C2.41405361 3.53910103 1.76494544 5.45988936 0.5625 7.8125 C-0.35104796 10.91707727 -0.35104796 10.91707727 1.20703125 12.94140625 C2.73702894 14.71505697 4.30630935 16.38286034 6 18 C5.67 18.66 5.34 19.32 5 20 C3.67569475 18.61536194 2.36597197 17.2167677 1.0625 15.8125 C0.33160156 15.03519531 -0.39929688 14.25789063 -1.15234375 13.45703125 C-3.11972458 10.84078909 -3.72960827 9.23388514 -4 6 C-3.00835839 3.33019566 -2.02855159 2.02855159 0 0 Z " fill="#2D2F2E" transform="translate(87,71)"/>
<path d="M0 0 C-0.185625 0.61875 -0.37125 1.2375 -0.5625 1.875 C-1.23686176 4.04160178 -1.23686176 4.04160178 0 6 C-3.153368 6.70074844 -5.72724974 7 -9 7 C-9.22417836 4.2351335 -9.32233508 2.53722513 -7.875 0.125 C-5.07848948 -1.55290631 -3.06309468 -0.74875648 0 0 Z " fill="#1F1F1F" transform="translate(52,31)"/>
<path d="M0 0 C0.33 0 0.66 0 1 0 C1.06058594 1.25296875 1.12117188 2.5059375 1.18359375 3.796875 C1.26802256 5.44792724 1.35266939 7.09896835 1.4375 8.75 C1.47681641 9.575 1.51613281 10.4 1.55664062 11.25 C1.59853516 12.04921875 1.64042969 12.8484375 1.68359375 13.671875 C1.72025146 14.4050293 1.75690918 15.13818359 1.79467773 15.89355469 C1.94697583 18.03770954 1.94697583 18.03770954 2.58227539 20.20800781 C2.78904907 21.09504395 2.78904907 21.09504395 3 22 C2.67 22.33 2.34 22.66 2 23 C1.84235595 24.77869726 1.74899323 26.56318476 1.68359375 28.34765625 C1.64169922 29.42724609 1.59980469 30.50683594 1.55664062 31.61914062 C1.51732422 32.75544922 1.47800781 33.89175781 1.4375 35.0625 C1.39431641 36.20267578 1.35113281 37.34285156 1.30664062 38.51757812 C1.20017161 41.34492195 1.09815793 44.17235738 1 47 C0.67 47 0.34 47 0 47 C0 31.49 0 15.98 0 0 Z " fill="#434343" transform="translate(74,89)"/>
<path d="M0 0 C2.9375 0.375 2.9375 0.375 6 1 C6.33 1.66 6.66 2.32 7 3 C6.01 3.495 6.01 3.495 5 4 C4.67 4.66 4.34 5.32 4 6 C4.89163577 8.11683841 4.89163577 8.11683841 6 10 C4.35 10.66 2.7 11.32 1 12 C0 11 0 11 -0.09765625 8.49609375 C-0.08605469 7.48675781 -0.07445312 6.47742187 -0.0625 5.4375 C-0.05347656 4.42558594 -0.04445312 3.41367187 -0.03515625 2.37109375 C-0.02355469 1.58863281 -0.01195312 0.80617187 0 0 Z " fill="#424242" transform="translate(64,46)"/>
<path d="M0 0 C5.83545251 3.47643979 5.83545251 3.47643979 6.6875 6.1875 C6.790625 6.785625 6.89375 7.38375 7 8 C7.99 8.33 8.98 8.66 10 9 C10.33 9.99 10.66 10.98 11 12 C10.01 13.485 10.01 13.485 9 15 C9 14.01 9 13.02 9 12 C7.8553125 11.566875 7.8553125 11.566875 6.6875 11.125 C4 10 4 10 1 8 C0.29947539 5.336937 0.22255182 2.75964263 0 0 Z " fill="#0F1010" transform="translate(65,60)"/>
<path d="M0 0 C3.387199 1.4388102 5.3594104 3.22119499 7.75 6 C8.67039062 7.051875 8.67039062 7.051875 9.609375 8.125 C11 10 11 10 11 12 C11.66 12 12.32 12 13 12 C14.625 13.5 14.625 13.5 16 15 C15.67 15.66 15.34 16.32 15 17 C8.50707654 12.51266846 3.81184332 7.96595682 0 1 C0 0.67 0 0.34 0 0 Z " fill="#090909" transform="translate(111,113)"/>
<path d="M0 0 C0.66 0 1.32 0 2 0 C1.91621094 1.14339844 1.83242187 2.28679687 1.74609375 3.46484375 C1.64295206 4.95571002 1.54010253 6.44659653 1.4375 7.9375 C1.38142578 8.69224609 1.32535156 9.44699219 1.26757812 10.22460938 C1.13823843 12.14745958 1.06483088 14.07389548 1 16 C1.33 16.33 1.66 16.66 2 17 C1.01 19.475 1.01 19.475 0 22 C-0.99 22 -1.98 22 -3 22 C-2.24984418 14.62346781 -1.16558465 7.32168224 0 0 Z " fill="#2D2D2D" transform="translate(212,115)"/>
<path d="M0 0 C0.43570313 0.37511719 0.87140625 0.75023438 1.3203125 1.13671875 C1.91585937 1.64847656 2.51140625 2.16023438 3.125 2.6875 C3.76179688 3.23535156 4.39859375 3.78320312 5.0546875 4.34765625 C6.76614087 5.80136062 8.50231289 7.21543326 10.25 8.625 C12.60466683 10.65857589 14.40663096 12.34438493 16 15 C16 15.99 16 16.98 16 18 C11.98918921 16.45597489 10.05393336 13.89612829 7.4375 10.5625 C4.48915356 6.77682541 4.48915356 6.77682541 1.22265625 3.27734375 C0 2 0 2 0 0 Z " fill="#888888" transform="translate(112,96)"/>
<path d="M0 0 C0.33 0 0.66 0 1 0 C0.48400816 7.8822202 -1.0921453 15.34458305 -3 23 C-5 21 -5 21 -5.01171875 18.94140625 C-4.90472656 18.15636719 -4.79773438 17.37132813 -4.6875 16.5625 C-4.58824219 15.78003906 -4.48898438 14.99757813 -4.38671875 14.19140625 C-4 12 -4 12 -3 9 C-2.855625 8.01 -2.71125 7.02 -2.5625 6 C-2 3 -2 3 0 0 Z " fill="#030303" transform="translate(24,80)"/>
<path d="M0 0 C0 0.33 0 0.66 0 1 C-0.94875 1.268125 -1.8975 1.53625 -2.875 1.8125 C-6.25267273 2.74986588 -6.25267273 2.74986588 -8 6 C-10.625 7.1875 -10.625 7.1875 -13 8 C-13.33 6.02 -13.66 4.04 -14 2 C-8.76579213 -1.27137992 -5.83394389 -1.10643764 0 0 Z " fill="#515150" transform="translate(150,10)"/>
<path d="M0 0 C2.45906037 0.47565766 4.91720993 0.95536052 7.375 1.4375 C8.07367188 1.57220703 8.77234375 1.70691406 9.4921875 1.84570312 C14.7734375 2.88671875 14.7734375 2.88671875 17 4 C17 4.66 17 5.32 17 6 C14.95825942 5.68798326 12.91661087 5.37536431 10.875 5.0625 C9.16957031 4.80146484 9.16957031 4.80146484 7.4296875 4.53515625 C4.28267331 4.04410734 1.14069217 3.52981281 -2 3 C-1.34 2.01 -0.68 1.02 0 0 Z " fill="#080808" transform="translate(131,18)"/>
<path d="M0 0 C0.66 0 1.32 0 2 0 C1.67 3.3 1.34 6.6 1 10 C0.01 10.33 -0.98 10.66 -2 11 C-2.33 10.01 -2.66 9.02 -3 8 C-3.66 8.66 -4.32 9.32 -5 10 C-5.33 8.68 -5.66 7.36 -6 6 C-5.34 6 -4.68 6 -4 6 C-4 5.34 -4 4.68 -4 4 C-3.34 4 -2.68 4 -2 4 C-1.34 2.68 -0.68 1.36 0 0 Z " fill="#464646" transform="translate(167,100)"/>
<path d="M0 0 C2 2 2 2 3 5 C5.31 5.33 7.62 5.66 10 6 C10 6.33 10 6.66 10 7 C5.38 7 0.76 7 -4 7 C-4.33 5.68 -4.66 4.36 -5 3 C-3.35 2.01 -1.7 1.02 0 0 Z " fill="#545453" transform="translate(116,10)"/>
<path d="M0 0 C3 1 3 1 4.75 3.875 C6 7 6 7 5 10 C4.01 10.33 3.02 10.66 2 11 C-0.32590854 7.36576791 -0.16265833 4.22911669 0 0 Z " fill="#333534" transform="translate(111,125)"/>
<path d="M0 0 C0.99 0.33 1.98 0.66 3 1 C2.67 2.32 2.34 3.64 2 5 C1.34 3.35 0.68 1.7 0 0 Z M-8 5 C-7.4225 5.37125 -6.845 5.7425 -6.25 6.125 C-5.5075 6.41375 -4.765 6.7025 -4 7 C-1.88316159 6.10836423 -1.88316159 6.10836423 0 5 C0.66 5.33 1.32 5.66 2 6 C1.34 7.32 0.68 8.64 0 10 C-2.875 10.125 -2.875 10.125 -6 10 C-6.66 9.34 -7.32 8.68 -8 8 C-8 7.01 -8 6.02 -8 5 Z " fill="#3D3D3D" transform="translate(193,105)"/>
<path d="M0 0 C0.99 0 1.98 0 3 0 C4.99097846 2.98646769 5.94124926 5.59687262 7 9 C5.68 9.33 4.36 9.66 3 10 C2.566875 9.1028125 2.566875 9.1028125 2.125 8.1875 C0.95257974 5.80672208 0.95257974 5.80672208 -1 3 C-0.67 2.01 -0.34 1.02 0 0 Z " fill="#121212" transform="translate(15,82)"/>
<path d="M0 0 C0 3.88091967 -1.65317733 6.39673296 -3.5 9.6875 C-3.83386719 10.29400391 -4.16773438 10.90050781 -4.51171875 11.52539062 C-5.335537 13.02003231 -6.16703451 14.51043671 -7 16 C-7.99 16 -8.98 16 -10 16 C-7.90139885 10.08576039 -5.30277956 3.53518637 0 0 Z " fill="#070707" transform="translate(38,53)"/>
<path d="M0 0 C2.66666667 1.33333333 5.33333333 2.66666667 8 4 C5 5 5 5 3 5 C2.67 5.66 2.34 6.32 2 7 C1.01 7 0.02 7 -1 7 C-1 6.01 -1 5.02 -1 4 C-1.66 3.67 -2.32 3.34 -3 3 C-2.01 2.01 -1.02 1.02 0 0 Z " fill="#2F3030" transform="translate(75,57)"/>
<path d="M0 0 C4 6 4 6 5 8 C5.99 7.67 6.98 7.34 8 7 C8 7.66 8 8.32 8 9 C7.01 9 6.02 9 5 9 C4.67 11.97 4.34 14.94 4 18 C2.3502238 14.7004476 1.55082348 12.51857306 0.875 9 C0.70742187 8.154375 0.53984375 7.30875 0.3671875 6.4375 C0 4 0 4 0 0 Z " fill="#454544" transform="translate(209,83)"/>
<path d="M0 0 C0.33 0 0.66 0 1 0 C1 3.33333333 1 6.66666667 1 10 C0.01 10.33 -0.98 10.66 -2 11 C-2 10.34 -2 9.68 -2 9 C-2.66 9 -3.32 9 -4 9 C-4.66 7.68 -5.32 6.36 -6 5 C-4.02 4.34 -2.04 3.68 0 3 C0 2.01 0 1.02 0 0 Z " fill="#323433" transform="translate(166,148)"/>
<path d="M0 0 C0.66 1.32 1.32 2.64 2 4 C0.66666667 5.33333333 -0.66666667 6.66666667 -2 8 C-2.33 8.66 -2.66 9.32 -3 10 C-5 9 -5 9 -5.8125 6.625 C-6 4 -6 4 -4.6875 2.1875 C-3 1 -3 1 -1 1 C-0.67 0.67 -0.34 0.34 0 0 Z " fill="#101010" transform="translate(16,94)"/>
<path d="M0 0 C1.15224028 0.92961422 2.29659176 1.8690125 3.4375 2.8125 C4.07558594 3.33457031 4.71367187 3.85664062 5.37109375 4.39453125 C7 6 7 6 8 9 C5.26077068 9 4.85663652 8.95221217 2 8 C2 7.34 2 6.68 2 6 C0.70766393 4.62689293 -0.62437146 3.28965176 -2 2 C-1.34 2 -0.68 2 0 2 C0 1.34 0 0.68 0 0 Z M1 9 C3 10 3 10 3 10 Z " fill="#6D6D6D" transform="translate(190,33)"/>
<path d="M0 0 C1.65 0 3.3 0 5 0 C5 1.65 5 3.3 5 5 C4.34 5 3.68 5 3 5 C2.01 5.66 1.02 6.32 0 7 C-1.32 6.34 -2.64 5.68 -4 5 C-3.34 5 -2.68 5 -2 5 C-1.34 3.35 -0.68 1.7 0 0 Z " fill="#171717" transform="translate(181,180)"/>
<path d="M0 0 C0.66 0 1.32 0 2 0 C3.66666667 1.66666667 5.33333333 3.33333333 7 5 C9.16620544 6.29519995 9.16620544 6.29519995 11 7 C11 8.65 11 10.3 11 12 C7.23701382 10.74567127 6.23116538 9.10153083 3.8125 6 C3.09707031 5.0925 2.38164063 4.185 1.64453125 3.25 C0 1 0 1 0 0 Z " fill="#272828" transform="translate(102,101)"/>
<path d="M0 0 C1.32 0.33 2.64 0.66 4 1 C3.34 2.98 2.68 4.96 2 7 C-0.375 7.625 -0.375 7.625 -3 8 C-3.66 7.34 -4.32 6.68 -5 6 C-4.01 5.34 -3.02 4.68 -2 4 C-0.80767387 1.94996045 -0.80767387 1.94996045 0 0 Z " fill="#3F3F3F" transform="translate(92,12)"/>
<path d="M0 0 C0.66 2.64 1.32 5.28 2 8 C-2 9 -2 9 -5 8 C-5 6.02 -5 4.04 -5 2 C-1.125 0 -1.125 0 0 0 Z " fill="#373837" transform="translate(166,123)"/>
<path d="M0 0 C1.32 1.65 2.64 3.3 4 5 C2.68 6.65 1.36 8.3 0 10 C-0.99 9.01 -1.98 8.02 -3 7 C-2 4 -2 4 -1 3 C-0.67 2.01 -0.34 1.02 0 0 Z " fill="#303231" transform="translate(153,142)"/>
<path d="M0 0 C0.66 0.33 1.32 0.66 2 1 C1.09515208 2.15518918 0.1755794 3.29885406 -0.75 4.4375 C-1.26046875 5.07558594 -1.7709375 5.71367187 -2.296875 6.37109375 C-4.24102096 8.23051775 -5.32626797 8.79473317 -8 9 C-8.99 8.34 -9.98 7.68 -11 7 C-10.28972656 6.57847656 -9.57945312 6.15695313 -8.84765625 5.72265625 C-7.92855469 5.17480469 -7.00945312 4.62695312 -6.0625 4.0625 C-5.14597656 3.51722656 -4.22945312 2.97195312 -3.28515625 2.41015625 C-1.11587323 1.19267827 -1.11587323 1.19267827 0 0 Z " fill="#090909" transform="translate(170,187)"/>
<path d="M0 0 C4.19162145 0.95264124 5.7207791 1.63260408 8.375 5.125 C8.91125 6.07375 9.4475 7.0225 10 8 C9.01 8.495 9.01 8.495 8 9 C8 8.34 8 7.68 8 7 C7.4225 6.71125 6.845 6.4225 6.25 6.125 C4.16666667 5.08333333 2.08333333 4.04166667 0 3 C0 2.01 0 1.02 0 0 Z " fill="#0D0D0D" transform="translate(111,122)"/>
<path d="M0 0 C4.62 2.31 9.24 4.62 14 7 C14 7.33 14 7.66 14 8 C8.29290936 7.53411505 4.84060277 6.06242216 0 3 C0 2.01 0 1.02 0 0 Z " fill="#383838" transform="translate(59,185)"/>
<path d="M0 0 C6.37675351 6.20440882 6.37675351 6.20440882 8 9 C7.6875 11.25 7.6875 11.25 7 13 C6.443125 12.13375 5.88625 11.2675 5.3125 10.375 C3.09747202 7.04054927 0.60395067 4.03794244 -2 1 C-1.34 0.67 -0.68 0.34 0 0 Z " fill="#606060" transform="translate(104,85)"/>
<path d="M0 0 C7 8.44827586 7 8.44827586 7 12 C5.68 12.33 4.36 12.66 3 13 C3.33 11.35 3.66 9.7 4 8 C3.34 8 2.68 8 2 8 C0.23537317 4.91190305 0 3.76687864 0 0 Z " fill="#565656" transform="translate(207,53)"/>
<path d="M0 0 C0.66 0.33 1.32 0.66 2 1 C2.08131463 2.43655854 2.13933559 3.8744483 2.1875 5.3125 C2.22230469 6.11300781 2.25710937 6.91351563 2.29296875 7.73828125 C1.93801608 10.47851584 1.10633718 11.29171079 -1 13 C-2.07310858 9.72814447 -1.89263102 7.57052408 -1.0625 4.25 C-0.86785156 3.45078125 -0.67320313 2.6515625 -0.47265625 1.828125 C-0.31667969 1.22484375 -0.16070312 0.6215625 0 0 Z " fill="#111111" transform="translate(122,161)"/>
<path d="M0 0 C0.33 0 0.66 0 1 0 C1.33 6.6 1.66 13.2 2 20 C1.01 20 0.02 20 -1 20 C-0.67 13.4 -0.34 6.8 0 0 Z " fill="#323232" transform="translate(158,85)"/>
<path d="M0 0 C0.66 0.33 1.32 0.66 2 1 C0.35 3.64 -1.3 6.28 -3 9 C-4.32 8.67 -5.64 8.34 -7 8 C-5.71937515 6.2925002 -4.38232443 4.62626404 -3 3 C-2.34 3 -1.68 3 -1 3 C-0.67 2.01 -0.34 1.02 0 0 Z " fill="#0C0C0C" transform="translate(207,167)"/>
<path d="M0 0 C2.54384726 1.27192363 2.69368156 2.19948469 3.6875 4.8125 C3.95949219 5.49957031 4.23148438 6.18664062 4.51171875 6.89453125 C5.06812731 9.29376496 4.77364938 10.6894364 4 13 C1.55302334 8.63799813 0.49730652 4.97306516 0 0 Z " fill="#424242" transform="translate(215,68)"/>
<path d="M0 0 C0.33 0.66 0.66 1.32 1 2 C-2.32307692 5.93846154 -2.32307692 5.93846154 -5.75 6.25 C-6.4925 6.1675 -7.235 6.085 -8 6 C-5.51047079 3.33264727 -3.36591866 1.44253657 0 0 Z " fill="#161716" transform="translate(60,19)"/>
<path d="M0 0 C2.66666667 2.66666667 5.33333333 5.33333333 8 8 C7.67 8.99 7.34 9.98 7 11 C4.36 8.03 1.72 5.06 -1 2 C-0.67 1.34 -0.34 0.68 0 0 Z " fill="#7D7C7D" transform="translate(128,113)"/>
<path d="M0 0 C0.99 0.33 1.98 0.66 3 1 C3.33 1.99 3.66 2.98 4 4 C3.67 4.66 3.34 5.32 3 6 C2.34 6 1.68 6 1 6 C0.67 6.66 0.34 7.32 0 8 C0 7.34 0 6.68 0 6 C-0.66 6 -1.32 6 -2 6 C-2 5.01 -2 4.02 -2 3 C-1.34 3 -0.68 3 0 3 C0 2.01 0 1.02 0 0 Z " fill="#444444" transform="translate(161,97)"/>
<path d="M0 0 C0.99 0.495 0.99 0.495 2 1 C2.4140625 3.50390625 2.4140625 3.50390625 2.625 6.5625 C2.69976563 7.57441406 2.77453125 8.58632812 2.8515625 9.62890625 C2.92503906 10.80259766 2.92503906 10.80259766 3 12 C-0.58050131 7.82744729 -0.26656798 5.33135955 0 0 Z " fill="#272727" transform="translate(18,117)"/>
<path d="M0 0 C-1.625 2 -1.625 2 -4 4 C-7.25 4.25 -7.25 4.25 -10 4 C-10 3.34 -10 2.68 -10 2 C-3.375 -1.125 -3.375 -1.125 0 0 Z " fill="#060606" transform="translate(159,196)"/>
<path d="M0 0 C0 1.32 0 2.64 0 4 C-1.65 3.67 -3.3 3.34 -5 3 C-5 2.34 -5 1.68 -5 1 C-5.66 0.67 -6.32 0.34 -7 0 C-3.86650268 -1.04449911 -3.01031744 -0.93423645 0 0 Z " fill="#686868" transform="translate(186,30)"/>
<path d="M0 0 C0.33 0.99 0.66 1.98 1 3 C2.32303717 3.3721042 3.65737935 3.70630173 5 4 C5.33 4.66 5.66 5.32 6 6 C5.34 6.66 4.68 7.32 4 8 C4 7.34 4 6.68 4 6 C3.360625 5.87625 2.72125 5.7525 2.0625 5.625 C1.381875 5.41875 0.70125 5.2125 0 5 C-0.33 4.34 -0.66 3.68 -1 3 C-0.67 2.01 -0.34 1.02 0 0 Z " fill="#383838" transform="translate(114,85)"/>
<path d="M0 0 C4.2742558 1.5830577 6.26531794 4.50568404 9 8 C8.67 8.66 8.34 9.32 8 10 C6.66370254 8.52351062 5.33103329 7.0437367 4 5.5625 C3.2575 4.73878906 2.515 3.91507812 1.75 3.06640625 C0 1 0 1 0 0 Z " fill="#111211" transform="translate(84,81)"/>
<path d="M0 0 C0.99 0.33 1.98 0.66 3 1 C3 4.96 3 8.92 3 13 C2.34 13 1.68 13 1 13 C0.67 8.71 0.34 4.42 0 0 Z " fill="#404040" transform="translate(212,102)"/>
<path d="M0 0 C0.66 0.33 1.32 0.66 2 1 C2.94934202 3.92713788 3.23176473 5.42831368 2.0625 8.3125 C1.5365625 9.1478125 1.5365625 9.1478125 1 10 C-1.56687367 6.1496895 -0.83288724 4.41430237 0 0 Z " fill="#47474E" transform="translate(220,82)"/>
<path d="M0 0 C3.60296594 -0.41176754 4.78402067 -0.1535853 7.8125 2 C8.534375 2.66 9.25625 3.32 10 4 C6.39703406 4.41176754 5.21597933 4.1535853 2.1875 2 C1.465625 1.34 0.74375 0.68 0 0 Z " fill="#686868" transform="translate(70,193)"/>
<path d="M0 0 C0.33 0 0.66 0 1 0 C1 3.3 1 6.6 1 10 C0.01 9.67 -0.98 9.34 -2 9 C-1.34 6.03 -0.68 3.06 0 0 Z " fill="#181818" transform="translate(169,166)"/>
<path d="M0 0 C5.57142857 5.14285714 5.57142857 5.14285714 6 9 C5.34 8.67 4.68 8.34 4 8 C4 7.34 4 6.68 4 6 C3.34 6 2.68 6 2 6 C0 3 0 3 0 0 Z " fill="#6C6C6C" transform="translate(147,135)"/>
<path d="M0 0 C0.66 0 1.32 0 2 0 C1.67 3.3 1.34 6.6 1 10 C0.34 9.34 -0.32 8.68 -1 8 C-0.96712417 5.27130593 -0.43602229 2.7033382 0 0 Z " fill="#0B0B0B" transform="translate(20,93)"/>
<path d="M0 0 C4.73509934 3.3995585 4.73509934 3.3995585 5.9375 6.125 C5.958125 6.74375 5.97875 7.3625 6 8 C5.34 8.66 4.68 9.32 4 10 C3.32845067 8.71086513 2.66291141 7.41859796 2 6.125 C1.62875 5.40570313 1.2575 4.68640625 0.875 3.9453125 C0 2 0 2 0 0 Z " fill="#4F4F4F" transform="translate(200,63)"/>
<path d="M0 0 C1.32 0 2.64 0 4 0 C4 2.66666667 4 5.33333333 4 8 C0 2.25 0 2.25 0 0 Z " fill="#222322" transform="translate(74,67)"/>
<path d="M0 0 C0.33 0 0.66 0 1 0 C1 2.97 1 5.94 1 9 C0.34 8.67 -0.32 8.34 -1 8 C-1.75 5.0625 -1.75 5.0625 -2 2 C-1.34 1.34 -0.68 0.68 0 0 Z " fill="#222222" transform="translate(63,47)"/>
<path d="M0 0 C-0.33 0.99 -0.66 1.98 -1 3 C-2.98 3 -4.96 3 -7 3 C-7 2.34 -7 1.68 -7 1 C-4.53721199 -0.231394 -2.7204945 -0.07159196 0 0 Z " fill="#7D7D7D" transform="translate(119,34)"/>
<path d="M0 0 C-3.53411321 2.12046792 -6.94393835 2.53199289 -11 3 C-8.21756596 -1.17365106 -4.53441502 -0.22300402 0 0 Z " fill="#0A0A0A" transform="translate(90,22)"/>
<path d="M0 0 C2.31 0.33 4.62 0.66 7 1 C6.67 1.66 6.34 2.32 6 3 C3.36 3 0.72 3 -2 3 C-1.34 2.01 -0.68 1.02 0 0 Z " fill="#0F0F0F" transform="translate(131,18)"/>
<path d="M0 0 C4.875 4.625 4.875 4.625 6 8 C2.17053157 6.54744301 0.87949705 4.57104439 -1 1 C-0.67 0.67 -0.34 0.34 0 0 Z " fill="#323232" transform="translate(35,161)"/>
<path d="M0 0 C0.66 0 1.32 0 2 0 C1.46930939 3.82097239 0.50298434 6.06171403 -2 9 C-2.20140476 5.37471432 -1.85776765 3.13498292 0 0 Z " fill="#020202" transform="translate(27,70)"/>
<path d="M0 0 C0.99 0 1.98 0 3 0 C3 0.66 3 1.32 3 2 C3.66 2.33 4.32 2.66 5 3 C4.01 3.66 3.02 4.32 2 5 C1.01 4.34 0.02 3.68 -1 3 C-0.67 2.01 -0.34 1.02 0 0 Z " fill="#5D5D5D" transform="translate(196,42)"/>
</svg>
